<mxfile host="app.diagrams.net" modified="2020-11-22T07:29:40.461Z" agent="5.0 (Windows NT 10.0; Win64; x64) AppleWebKit/537.36 (KHTML, like Gecko) Chrome/87.0.4280.66 Safari/537.36" etag="xWzCG8_gV9QRVIEf6yY-" version="13.10.0" type="github">
  <diagram id="HbjWb4XwBNiWFZnqmzFt" name="Page-1">
    <mxGraphModel dx="1185" dy="-507" grid="0" gridSize="10" guides="1" tooltips="1" connect="1" arrows="1" fold="1" page="1" pageScale="1" pageWidth="827" pageHeight="1169" math="0" shadow="0">
      <root>
        <mxCell id="0" />
        <mxCell id="1" parent="0" />
        <mxCell id="0wjpcV22vmfzBX8xie9R-3" style="edgeStyle=orthogonalEdgeStyle;rounded=0;orthogonalLoop=1;jettySize=auto;html=1;exitX=0.5;exitY=1;exitDx=0;exitDy=0;entryX=0;entryY=0.5;entryDx=0;entryDy=0;" edge="1" parent="1" source="QDssYqvsrF62F8crRkIU-1" target="QDssYqvsrF62F8crRkIU-30">
          <mxGeometry relative="1" as="geometry" />
        </mxCell>
        <mxCell id="QDssYqvsrF62F8crRkIU-1" value="&amp;lt;PROGRAMA&amp;gt;" style="text;html=1;strokeColor=none;fillColor=none;align=center;verticalAlign=middle;whiteSpace=wrap;rounded=0;" parent="1" vertex="1">
          <mxGeometry x="49.5" y="1215" width="60" height="20" as="geometry" />
        </mxCell>
        <mxCell id="0wjpcV22vmfzBX8xie9R-14" style="edgeStyle=orthogonalEdgeStyle;rounded=0;orthogonalLoop=1;jettySize=auto;html=1;exitX=0.5;exitY=1;exitDx=0;exitDy=0;entryX=0;entryY=0.5;entryDx=0;entryDy=0;" edge="1" parent="1" source="QDssYqvsrF62F8crRkIU-2" target="0wjpcV22vmfzBX8xie9R-15">
          <mxGeometry relative="1" as="geometry" />
        </mxCell>
        <mxCell id="QDssYqvsrF62F8crRkIU-2" value="&amp;lt;MAIN&amp;gt;" style="text;html=1;strokeColor=none;fillColor=none;align=center;verticalAlign=middle;whiteSpace=wrap;rounded=0;" parent="1" vertex="1">
          <mxGeometry x="38" y="1336" width="60" height="20" as="geometry" />
        </mxCell>
        <mxCell id="0wjpcV22vmfzBX8xie9R-47" style="edgeStyle=orthogonalEdgeStyle;rounded=0;orthogonalLoop=1;jettySize=auto;html=1;exitX=0.5;exitY=1;exitDx=0;exitDy=0;entryX=0;entryY=0.5;entryDx=0;entryDy=0;" edge="1" parent="1" source="QDssYqvsrF62F8crRkIU-3" target="0wjpcV22vmfzBX8xie9R-45">
          <mxGeometry relative="1" as="geometry" />
        </mxCell>
        <mxCell id="QDssYqvsrF62F8crRkIU-3" value="&amp;lt;VARS&amp;gt;" style="text;html=1;strokeColor=none;fillColor=none;align=center;verticalAlign=middle;whiteSpace=wrap;rounded=0;" parent="1" vertex="1">
          <mxGeometry x="57" y="1428" width="60" height="20" as="geometry" />
        </mxCell>
        <mxCell id="0wjpcV22vmfzBX8xie9R-51" style="edgeStyle=orthogonalEdgeStyle;rounded=0;orthogonalLoop=1;jettySize=auto;html=1;exitX=0.5;exitY=1;exitDx=0;exitDy=0;entryX=0;entryY=0.5;entryDx=0;entryDy=0;" edge="1" parent="1" source="QDssYqvsrF62F8crRkIU-4" target="0wjpcV22vmfzBX8xie9R-40">
          <mxGeometry relative="1" as="geometry" />
        </mxCell>
        <mxCell id="QDssYqvsrF62F8crRkIU-4" value="&amp;lt;VARS AUX&amp;gt;" style="text;html=1;strokeColor=none;fillColor=none;align=center;verticalAlign=middle;whiteSpace=wrap;rounded=0;" parent="1" vertex="1">
          <mxGeometry x="53" y="1520" width="80" height="20" as="geometry" />
        </mxCell>
        <mxCell id="QDssYqvsrF62F8crRkIU-115" style="edgeStyle=orthogonalEdgeStyle;rounded=0;orthogonalLoop=1;jettySize=auto;html=1;exitX=0.5;exitY=1;exitDx=0;exitDy=0;entryX=0;entryY=0.5;entryDx=0;entryDy=0;endArrow=none;endFill=0;" parent="1" source="QDssYqvsrF62F8crRkIU-6" target="QDssYqvsrF62F8crRkIU-111" edge="1">
          <mxGeometry relative="1" as="geometry" />
        </mxCell>
        <mxCell id="QDssYqvsrF62F8crRkIU-6" value="&amp;lt;TIPO&amp;gt;" style="text;html=1;strokeColor=none;fillColor=none;align=center;verticalAlign=middle;whiteSpace=wrap;rounded=0;" parent="1" vertex="1">
          <mxGeometry x="45.5" y="1765" width="60" height="20" as="geometry" />
        </mxCell>
        <mxCell id="0wjpcV22vmfzBX8xie9R-24" style="edgeStyle=orthogonalEdgeStyle;rounded=0;orthogonalLoop=1;jettySize=auto;html=1;exitX=0.5;exitY=1;exitDx=0;exitDy=0;entryX=0;entryY=0.5;entryDx=0;entryDy=0;" edge="1" parent="1" source="QDssYqvsrF62F8crRkIU-7" target="0wjpcV22vmfzBX8xie9R-19">
          <mxGeometry relative="1" as="geometry" />
        </mxCell>
        <mxCell id="QDssYqvsrF62F8crRkIU-7" value="&amp;lt;BLOQUE MODULE&amp;gt;" style="text;html=1;strokeColor=none;fillColor=none;align=center;verticalAlign=middle;whiteSpace=wrap;rounded=0;" parent="1" vertex="1">
          <mxGeometry x="53" y="1945" width="130" height="20" as="geometry" />
        </mxCell>
        <mxCell id="0wjpcV22vmfzBX8xie9R-35" style="edgeStyle=orthogonalEdgeStyle;rounded=0;orthogonalLoop=1;jettySize=auto;html=1;exitX=0.5;exitY=1;exitDx=0;exitDy=0;entryX=0;entryY=0.5;entryDx=0;entryDy=0;" edge="1" parent="1" source="QDssYqvsrF62F8crRkIU-8" target="0wjpcV22vmfzBX8xie9R-32">
          <mxGeometry relative="1" as="geometry" />
        </mxCell>
        <mxCell id="QDssYqvsrF62F8crRkIU-8" value="&amp;lt;BLOQUE&amp;gt;" style="text;html=1;strokeColor=none;fillColor=none;align=center;verticalAlign=middle;whiteSpace=wrap;rounded=0;" parent="1" vertex="1">
          <mxGeometry x="60.5" y="2111" width="60" height="20" as="geometry" />
        </mxCell>
        <mxCell id="0wjpcV22vmfzBX8xie9R-78" style="edgeStyle=orthogonalEdgeStyle;rounded=0;orthogonalLoop=1;jettySize=auto;html=1;exitX=0.5;exitY=1;exitDx=0;exitDy=0;entryX=0;entryY=0.5;entryDx=0;entryDy=0;" edge="1" parent="1" source="QDssYqvsrF62F8crRkIU-9" target="0wjpcV22vmfzBX8xie9R-76">
          <mxGeometry relative="1" as="geometry" />
        </mxCell>
        <mxCell id="QDssYqvsrF62F8crRkIU-9" value="&amp;lt;ESTATUTO AUX&amp;gt;" style="text;html=1;strokeColor=none;fillColor=none;align=center;verticalAlign=middle;whiteSpace=wrap;rounded=0;" parent="1" vertex="1">
          <mxGeometry x="60.5" y="2216" width="110" height="20" as="geometry" />
        </mxCell>
        <mxCell id="QDssYqvsrF62F8crRkIU-126" style="edgeStyle=orthogonalEdgeStyle;rounded=0;orthogonalLoop=1;jettySize=auto;html=1;exitX=0.5;exitY=1;exitDx=0;exitDy=0;entryX=0;entryY=0.5;entryDx=0;entryDy=0;endArrow=classic;endFill=1;" parent="1" source="QDssYqvsrF62F8crRkIU-11" target="QDssYqvsrF62F8crRkIU-122" edge="1">
          <mxGeometry relative="1" as="geometry" />
        </mxCell>
        <mxCell id="QDssYqvsrF62F8crRkIU-11" value="&amp;lt;ASIGNACION&amp;gt;" style="text;html=1;strokeColor=none;fillColor=none;align=center;verticalAlign=middle;whiteSpace=wrap;rounded=0;" parent="1" vertex="1">
          <mxGeometry x="62.5" y="2688" width="90" height="20" as="geometry" />
        </mxCell>
        <mxCell id="QDssYqvsrF62F8crRkIU-133" style="edgeStyle=orthogonalEdgeStyle;rounded=0;orthogonalLoop=1;jettySize=auto;html=1;exitX=0.5;exitY=1;exitDx=0;exitDy=0;entryX=0;entryY=0.5;entryDx=0;entryDy=0;endArrow=classic;endFill=1;" parent="1" source="QDssYqvsrF62F8crRkIU-12" target="QDssYqvsrF62F8crRkIU-130" edge="1">
          <mxGeometry relative="1" as="geometry" />
        </mxCell>
        <mxCell id="QDssYqvsrF62F8crRkIU-12" value="&amp;lt;EXPRESION&amp;gt;" style="text;html=1;strokeColor=none;fillColor=none;align=center;verticalAlign=middle;whiteSpace=wrap;rounded=0;" parent="1" vertex="1">
          <mxGeometry x="75.5" y="2787" width="60" height="20" as="geometry" />
        </mxCell>
        <mxCell id="QDssYqvsrF62F8crRkIU-137" style="edgeStyle=orthogonalEdgeStyle;rounded=0;orthogonalLoop=1;jettySize=auto;html=1;exitX=0.5;exitY=1;exitDx=0;exitDy=0;entryX=0;entryY=0.5;entryDx=0;entryDy=0;endArrow=classic;endFill=1;" parent="1" source="QDssYqvsrF62F8crRkIU-13" target="QDssYqvsrF62F8crRkIU-138" edge="1">
          <mxGeometry relative="1" as="geometry">
            <mxPoint x="110.5" y="2935.75" as="targetPoint" />
          </mxGeometry>
        </mxCell>
        <mxCell id="QDssYqvsrF62F8crRkIU-13" value="&amp;lt;EXP&amp;gt;" style="text;html=1;strokeColor=none;fillColor=none;align=center;verticalAlign=middle;whiteSpace=wrap;rounded=0;" parent="1" vertex="1">
          <mxGeometry x="55.5" y="2885.75" width="55" height="20" as="geometry" />
        </mxCell>
        <mxCell id="QDssYqvsrF62F8crRkIU-148" style="edgeStyle=orthogonalEdgeStyle;rounded=0;orthogonalLoop=1;jettySize=auto;html=1;exitX=0.5;exitY=1;exitDx=0;exitDy=0;entryX=0;entryY=0.5;entryDx=0;entryDy=0;endArrow=classic;endFill=1;" parent="1" source="QDssYqvsrF62F8crRkIU-14" target="QDssYqvsrF62F8crRkIU-147" edge="1">
          <mxGeometry relative="1" as="geometry" />
        </mxCell>
        <mxCell id="QDssYqvsrF62F8crRkIU-14" value="&amp;lt;EXP AUX&amp;gt;" style="text;html=1;strokeColor=none;fillColor=none;align=center;verticalAlign=middle;whiteSpace=wrap;rounded=0;" parent="1" vertex="1">
          <mxGeometry x="55.5" y="3003.25" width="80" height="20" as="geometry" />
        </mxCell>
        <mxCell id="0wjpcV22vmfzBX8xie9R-87" style="edgeStyle=orthogonalEdgeStyle;rounded=0;orthogonalLoop=1;jettySize=auto;html=1;exitX=0.5;exitY=1;exitDx=0;exitDy=0;entryX=0;entryY=0.5;entryDx=0;entryDy=0;" edge="1" parent="1" source="QDssYqvsrF62F8crRkIU-15" target="QDssYqvsrF62F8crRkIU-47">
          <mxGeometry relative="1" as="geometry" />
        </mxCell>
        <mxCell id="QDssYqvsrF62F8crRkIU-15" value="&amp;lt;EXP AUX2&amp;gt;" style="text;html=1;strokeColor=none;fillColor=none;align=center;verticalAlign=middle;whiteSpace=wrap;rounded=0;" parent="1" vertex="1">
          <mxGeometry x="49.5" y="3277" width="82.5" height="20" as="geometry" />
        </mxCell>
        <mxCell id="0wjpcV22vmfzBX8xie9R-159" style="edgeStyle=orthogonalEdgeStyle;rounded=0;orthogonalLoop=1;jettySize=auto;html=1;exitX=0.5;exitY=1;exitDx=0;exitDy=0;entryX=0;entryY=0.5;entryDx=0;entryDy=0;" edge="1" parent="1" source="QDssYqvsrF62F8crRkIU-19" target="0wjpcV22vmfzBX8xie9R-152">
          <mxGeometry relative="1" as="geometry" />
        </mxCell>
        <mxCell id="QDssYqvsrF62F8crRkIU-19" value="&amp;lt;MODULE&amp;gt;" style="text;html=1;strokeColor=none;fillColor=none;align=center;verticalAlign=middle;whiteSpace=wrap;rounded=0;" parent="1" vertex="1">
          <mxGeometry x="57" y="3990" width="80" height="20" as="geometry" />
        </mxCell>
        <mxCell id="0wjpcV22vmfzBX8xie9R-172" style="edgeStyle=orthogonalEdgeStyle;rounded=0;orthogonalLoop=1;jettySize=auto;html=1;exitX=0.5;exitY=1;exitDx=0;exitDy=0;entryX=0;entryY=0.5;entryDx=0;entryDy=0;" edge="1" parent="1" source="QDssYqvsrF62F8crRkIU-20" target="0wjpcV22vmfzBX8xie9R-169">
          <mxGeometry relative="1" as="geometry" />
        </mxCell>
        <mxCell id="QDssYqvsrF62F8crRkIU-20" value="&amp;lt;PARAMS&amp;gt;" style="text;html=1;strokeColor=none;fillColor=none;align=center;verticalAlign=middle;whiteSpace=wrap;rounded=0;" parent="1" vertex="1">
          <mxGeometry x="59.5" y="4142" width="87" height="20" as="geometry" />
        </mxCell>
        <mxCell id="0wjpcV22vmfzBX8xie9R-202" style="edgeStyle=orthogonalEdgeStyle;rounded=0;orthogonalLoop=1;jettySize=auto;html=1;exitX=0.5;exitY=1;exitDx=0;exitDy=0;entryX=0;entryY=0.5;entryDx=0;entryDy=0;" edge="1" parent="1" source="QDssYqvsrF62F8crRkIU-22" target="0wjpcV22vmfzBX8xie9R-198">
          <mxGeometry relative="1" as="geometry" />
        </mxCell>
        <mxCell id="QDssYqvsrF62F8crRkIU-22" value="&amp;lt;RETURN&amp;gt;" style="text;html=1;strokeColor=none;fillColor=none;align=center;verticalAlign=middle;whiteSpace=wrap;rounded=0;" parent="1" vertex="1">
          <mxGeometry x="64.5" y="4365" width="60" height="20" as="geometry" />
        </mxCell>
        <mxCell id="0wjpcV22vmfzBX8xie9R-204" style="edgeStyle=orthogonalEdgeStyle;rounded=0;orthogonalLoop=1;jettySize=auto;html=1;exitX=0.5;exitY=1;exitDx=0;exitDy=0;entryX=0;entryY=0.5;entryDx=0;entryDy=0;" edge="1" parent="1" source="QDssYqvsrF62F8crRkIU-23" target="0wjpcV22vmfzBX8xie9R-203">
          <mxGeometry relative="1" as="geometry" />
        </mxCell>
        <mxCell id="QDssYqvsrF62F8crRkIU-23" value="&amp;lt;FOR&amp;gt;" style="text;html=1;strokeColor=none;fillColor=none;align=center;verticalAlign=middle;whiteSpace=wrap;rounded=0;" parent="1" vertex="1">
          <mxGeometry x="52" y="4513" width="80" height="20" as="geometry" />
        </mxCell>
        <mxCell id="0wjpcV22vmfzBX8xie9R-273" style="edgeStyle=orthogonalEdgeStyle;rounded=0;orthogonalLoop=1;jettySize=auto;html=1;exitX=0.5;exitY=1;exitDx=0;exitDy=0;entryX=0;entryY=0.5;entryDx=0;entryDy=0;" edge="1" parent="1" source="QDssYqvsrF62F8crRkIU-25" target="0wjpcV22vmfzBX8xie9R-259">
          <mxGeometry relative="1" as="geometry" />
        </mxCell>
        <mxCell id="QDssYqvsrF62F8crRkIU-25" value="&amp;lt;CONDICION&amp;gt;" style="text;html=1;strokeColor=none;fillColor=none;align=center;verticalAlign=middle;whiteSpace=wrap;rounded=0;" parent="1" vertex="1">
          <mxGeometry x="46" y="4856.5" width="110" height="20" as="geometry" />
        </mxCell>
        <mxCell id="0wjpcV22vmfzBX8xie9R-290" style="edgeStyle=orthogonalEdgeStyle;rounded=0;orthogonalLoop=1;jettySize=auto;html=1;exitX=0.5;exitY=1;exitDx=0;exitDy=0;entryX=0;entryY=0.5;entryDx=0;entryDy=0;" edge="1" parent="1" source="QDssYqvsrF62F8crRkIU-26" target="0wjpcV22vmfzBX8xie9R-282">
          <mxGeometry relative="1" as="geometry" />
        </mxCell>
        <mxCell id="QDssYqvsrF62F8crRkIU-26" value="&amp;lt;ESCRITURA&amp;gt;" style="text;html=1;strokeColor=none;fillColor=none;align=center;verticalAlign=middle;whiteSpace=wrap;rounded=0;" parent="1" vertex="1">
          <mxGeometry x="46" y="5018.5" width="105" height="20" as="geometry" />
        </mxCell>
        <mxCell id="0wjpcV22vmfzBX8xie9R-296" style="edgeStyle=orthogonalEdgeStyle;rounded=0;orthogonalLoop=1;jettySize=auto;html=1;exitX=0.5;exitY=1;exitDx=0;exitDy=0;entryX=0;entryY=0.5;entryDx=0;entryDy=0;" edge="1" parent="1" source="QDssYqvsrF62F8crRkIU-27" target="0wjpcV22vmfzBX8xie9R-293">
          <mxGeometry relative="1" as="geometry" />
        </mxCell>
        <mxCell id="0wjpcV22vmfzBX8xie9R-297" style="edgeStyle=orthogonalEdgeStyle;rounded=0;orthogonalLoop=1;jettySize=auto;html=1;exitX=0.5;exitY=1;exitDx=0;exitDy=0;entryX=0;entryY=0.5;entryDx=0;entryDy=0;" edge="1" parent="1" source="QDssYqvsrF62F8crRkIU-27" target="0wjpcV22vmfzBX8xie9R-294">
          <mxGeometry relative="1" as="geometry" />
        </mxCell>
        <mxCell id="QDssYqvsrF62F8crRkIU-27" value="&amp;lt;ESCRITURA AUX&amp;gt;" style="text;html=1;strokeColor=none;fillColor=none;align=center;verticalAlign=middle;whiteSpace=wrap;rounded=0;" parent="1" vertex="1">
          <mxGeometry x="52" y="5151.5" width="120" height="20" as="geometry" />
        </mxCell>
        <mxCell id="0wjpcV22vmfzBX8xie9R-4" style="edgeStyle=orthogonalEdgeStyle;rounded=0;orthogonalLoop=1;jettySize=auto;html=1;exitX=1;exitY=0.5;exitDx=0;exitDy=0;entryX=0;entryY=0.5;entryDx=0;entryDy=0;" edge="1" parent="1" source="QDssYqvsrF62F8crRkIU-30" target="QDssYqvsrF62F8crRkIU-31">
          <mxGeometry relative="1" as="geometry" />
        </mxCell>
        <mxCell id="QDssYqvsrF62F8crRkIU-30" value="program" style="rounded=1;whiteSpace=wrap;html=1;strokeWidth=1;imageWidth=24;arcSize=50;" parent="1" vertex="1">
          <mxGeometry x="109.5" y="1254" width="70" height="30" as="geometry" />
        </mxCell>
        <mxCell id="0wjpcV22vmfzBX8xie9R-5" style="edgeStyle=orthogonalEdgeStyle;rounded=0;orthogonalLoop=1;jettySize=auto;html=1;exitX=1;exitY=0.5;exitDx=0;exitDy=0;entryX=0;entryY=0.5;entryDx=0;entryDy=0;" edge="1" parent="1" source="QDssYqvsrF62F8crRkIU-31" target="QDssYqvsrF62F8crRkIU-33">
          <mxGeometry relative="1" as="geometry" />
        </mxCell>
        <mxCell id="QDssYqvsrF62F8crRkIU-31" value="id" style="rounded=1;whiteSpace=wrap;html=1;strokeWidth=1;imageWidth=24;arcSize=50;" parent="1" vertex="1">
          <mxGeometry x="218.5" y="1254" width="36" height="30" as="geometry" />
        </mxCell>
        <mxCell id="0wjpcV22vmfzBX8xie9R-6" style="edgeStyle=orthogonalEdgeStyle;rounded=0;orthogonalLoop=1;jettySize=auto;html=1;exitX=1;exitY=0.5;exitDx=0;exitDy=0;" edge="1" parent="1" source="QDssYqvsrF62F8crRkIU-33" target="QDssYqvsrF62F8crRkIU-34">
          <mxGeometry relative="1" as="geometry" />
        </mxCell>
        <mxCell id="QDssYqvsrF62F8crRkIU-33" value="&lt;b&gt;&lt;font style=&quot;font-size: 14px&quot;&gt;;&lt;/font&gt;&lt;/b&gt;" style="rounded=1;whiteSpace=wrap;html=1;strokeWidth=1;imageWidth=24;arcSize=50;" parent="1" vertex="1">
          <mxGeometry x="284.5" y="1254" width="30" height="30" as="geometry" />
        </mxCell>
        <mxCell id="0wjpcV22vmfzBX8xie9R-7" style="edgeStyle=orthogonalEdgeStyle;rounded=0;orthogonalLoop=1;jettySize=auto;html=1;exitX=1;exitY=0.5;exitDx=0;exitDy=0;" edge="1" parent="1" source="QDssYqvsrF62F8crRkIU-34" target="0wjpcV22vmfzBX8xie9R-1">
          <mxGeometry relative="1" as="geometry" />
        </mxCell>
        <mxCell id="QDssYqvsrF62F8crRkIU-34" value="VARS" style="rounded=0;whiteSpace=wrap;html=1;strokeWidth=1;" parent="1" vertex="1">
          <mxGeometry x="354.5" y="1255.25" width="60" height="27.5" as="geometry" />
        </mxCell>
        <mxCell id="QDssYqvsrF62F8crRkIU-35" value="VARS AUX" style="rounded=0;whiteSpace=wrap;html=1;strokeWidth=1;" parent="1" vertex="1">
          <mxGeometry x="196" y="1456.25" width="70" height="27.5" as="geometry" />
        </mxCell>
        <mxCell id="QDssYqvsrF62F8crRkIU-38" value="BLOQUE MODULE" style="rounded=0;whiteSpace=wrap;html=1;strokeWidth=1;" parent="1" vertex="1">
          <mxGeometry x="208" y="1366.25" width="110" height="27.5" as="geometry" />
        </mxCell>
        <mxCell id="0wjpcV22vmfzBX8xie9R-88" style="edgeStyle=orthogonalEdgeStyle;rounded=0;orthogonalLoop=1;jettySize=auto;html=1;exitX=1;exitY=0.5;exitDx=0;exitDy=0;entryX=1;entryY=0.5;entryDx=0;entryDy=0;" edge="1" parent="1" source="QDssYqvsrF62F8crRkIU-47" target="0wjpcV22vmfzBX8xie9R-85">
          <mxGeometry relative="1" as="geometry" />
        </mxCell>
        <mxCell id="0wjpcV22vmfzBX8xie9R-89" style="edgeStyle=orthogonalEdgeStyle;rounded=0;orthogonalLoop=1;jettySize=auto;html=1;exitX=1;exitY=0.5;exitDx=0;exitDy=0;entryX=1;entryY=0.5;entryDx=0;entryDy=0;" edge="1" parent="1" source="QDssYqvsrF62F8crRkIU-47" target="0wjpcV22vmfzBX8xie9R-86">
          <mxGeometry relative="1" as="geometry" />
        </mxCell>
        <mxCell id="QDssYqvsrF62F8crRkIU-47" value="TERM" style="rounded=0;whiteSpace=wrap;html=1;strokeWidth=1;" parent="1" vertex="1">
          <mxGeometry x="135" y="3307" width="70" height="27.5" as="geometry" />
        </mxCell>
        <mxCell id="0wjpcV22vmfzBX8xie9R-289" style="edgeStyle=orthogonalEdgeStyle;rounded=0;orthogonalLoop=1;jettySize=auto;html=1;exitX=1;exitY=0.5;exitDx=0;exitDy=0;entryX=0;entryY=0.5;entryDx=0;entryDy=0;" edge="1" parent="1" source="QDssYqvsrF62F8crRkIU-57" target="0wjpcV22vmfzBX8xie9R-285">
          <mxGeometry relative="1" as="geometry" />
        </mxCell>
        <mxCell id="QDssYqvsrF62F8crRkIU-57" value="ESCRITURA AUX" style="rounded=0;whiteSpace=wrap;html=1;strokeWidth=1;" parent="1" vertex="1">
          <mxGeometry x="304.56000000000006" y="5064.75" width="110" height="27.5" as="geometry" />
        </mxCell>
        <mxCell id="QDssYqvsrF62F8crRkIU-84" style="edgeStyle=orthogonalEdgeStyle;rounded=0;orthogonalLoop=1;jettySize=auto;html=1;exitX=0.5;exitY=1;exitDx=0;exitDy=0;entryX=0;entryY=0.5;entryDx=0;entryDy=0;endArrow=none;endFill=0;" parent="1" source="QDssYqvsrF62F8crRkIU-86" target="QDssYqvsrF62F8crRkIU-105" edge="1">
          <mxGeometry relative="1" as="geometry" />
        </mxCell>
        <mxCell id="QDssYqvsrF62F8crRkIU-85" style="edgeStyle=orthogonalEdgeStyle;rounded=0;orthogonalLoop=1;jettySize=auto;html=1;exitX=0.5;exitY=1;exitDx=0;exitDy=0;entryX=0;entryY=0.5;entryDx=0;entryDy=0;endArrow=none;endFill=0;" parent="1" source="QDssYqvsrF62F8crRkIU-86" target="QDssYqvsrF62F8crRkIU-94" edge="1">
          <mxGeometry relative="1" as="geometry" />
        </mxCell>
        <mxCell id="QDssYqvsrF62F8crRkIU-86" value="&amp;lt;ESTATUTO&amp;gt;" style="text;html=1;strokeColor=none;fillColor=none;align=center;verticalAlign=middle;whiteSpace=wrap;rounded=0;" parent="1" vertex="1">
          <mxGeometry x="62.5" y="2357" width="80" height="20" as="geometry" />
        </mxCell>
        <mxCell id="QDssYqvsrF62F8crRkIU-87" style="edgeStyle=orthogonalEdgeStyle;rounded=0;orthogonalLoop=1;jettySize=auto;html=1;exitX=0;exitY=0.5;exitDx=0;exitDy=0;entryX=0.5;entryY=1;entryDx=0;entryDy=0;endArrow=none;endFill=0;" parent="1" source="QDssYqvsrF62F8crRkIU-89" target="QDssYqvsrF62F8crRkIU-86" edge="1">
          <mxGeometry relative="1" as="geometry" />
        </mxCell>
        <mxCell id="QDssYqvsrF62F8crRkIU-88" style="edgeStyle=orthogonalEdgeStyle;rounded=0;orthogonalLoop=1;jettySize=auto;html=1;exitX=1;exitY=0.5;exitDx=0;exitDy=0;endArrow=classic;endFill=1;entryX=0;entryY=0.5;entryDx=0;entryDy=0;" parent="1" source="QDssYqvsrF62F8crRkIU-89" target="QDssYqvsrF62F8crRkIU-106" edge="1">
          <mxGeometry relative="1" as="geometry">
            <mxPoint x="292.5" y="2403.137931034483" as="targetPoint" />
          </mxGeometry>
        </mxCell>
        <mxCell id="QDssYqvsrF62F8crRkIU-89" value="ASIGNACION" style="rounded=0;whiteSpace=wrap;html=1;strokeWidth=1;" parent="1" vertex="1">
          <mxGeometry x="142.5" y="2389.5" width="90" height="27.5" as="geometry" />
        </mxCell>
        <mxCell id="QDssYqvsrF62F8crRkIU-90" style="edgeStyle=orthogonalEdgeStyle;rounded=0;orthogonalLoop=1;jettySize=auto;html=1;exitX=0;exitY=0.5;exitDx=0;exitDy=0;entryX=0.5;entryY=1;entryDx=0;entryDy=0;endArrow=none;endFill=0;" parent="1" source="QDssYqvsrF62F8crRkIU-92" target="QDssYqvsrF62F8crRkIU-86" edge="1">
          <mxGeometry relative="1" as="geometry" />
        </mxCell>
        <mxCell id="QDssYqvsrF62F8crRkIU-91" style="edgeStyle=orthogonalEdgeStyle;rounded=0;orthogonalLoop=1;jettySize=auto;html=1;exitX=1;exitY=0.5;exitDx=0;exitDy=0;endArrow=classic;endFill=1;entryX=0;entryY=0.5;entryDx=0;entryDy=0;" parent="1" source="QDssYqvsrF62F8crRkIU-92" target="QDssYqvsrF62F8crRkIU-106" edge="1">
          <mxGeometry relative="1" as="geometry">
            <mxPoint x="262.5" y="2441.0689655172414" as="targetPoint" />
          </mxGeometry>
        </mxCell>
        <mxCell id="QDssYqvsrF62F8crRkIU-92" value="EXPRESION" style="rounded=0;whiteSpace=wrap;html=1;strokeWidth=1;" parent="1" vertex="1">
          <mxGeometry x="142.5" y="2427" width="80" height="27.5" as="geometry" />
        </mxCell>
        <mxCell id="QDssYqvsrF62F8crRkIU-93" style="edgeStyle=orthogonalEdgeStyle;rounded=0;orthogonalLoop=1;jettySize=auto;html=1;exitX=1;exitY=0.5;exitDx=0;exitDy=0;entryX=0;entryY=0.5;entryDx=0;entryDy=0;endArrow=classic;endFill=1;" parent="1" source="QDssYqvsrF62F8crRkIU-94" target="QDssYqvsrF62F8crRkIU-106" edge="1">
          <mxGeometry relative="1" as="geometry" />
        </mxCell>
        <mxCell id="QDssYqvsrF62F8crRkIU-94" value="ESCRITURA" style="rounded=0;whiteSpace=wrap;html=1;strokeWidth=1;" parent="1" vertex="1">
          <mxGeometry x="142.5" y="2467" width="80" height="27.5" as="geometry" />
        </mxCell>
        <mxCell id="QDssYqvsrF62F8crRkIU-95" style="edgeStyle=orthogonalEdgeStyle;rounded=0;orthogonalLoop=1;jettySize=auto;html=1;exitX=0;exitY=0.5;exitDx=0;exitDy=0;endArrow=none;endFill=0;" parent="1" source="QDssYqvsrF62F8crRkIU-97" edge="1">
          <mxGeometry relative="1" as="geometry">
            <mxPoint x="102.5" y="2377" as="targetPoint" />
          </mxGeometry>
        </mxCell>
        <mxCell id="QDssYqvsrF62F8crRkIU-96" style="edgeStyle=orthogonalEdgeStyle;rounded=0;orthogonalLoop=1;jettySize=auto;html=1;exitX=1;exitY=0.5;exitDx=0;exitDy=0;entryX=0;entryY=0.5;entryDx=0;entryDy=0;endArrow=classic;endFill=1;" parent="1" source="QDssYqvsrF62F8crRkIU-97" target="QDssYqvsrF62F8crRkIU-106" edge="1">
          <mxGeometry relative="1" as="geometry" />
        </mxCell>
        <mxCell id="QDssYqvsrF62F8crRkIU-97" value="RETURN" style="rounded=0;whiteSpace=wrap;html=1;strokeWidth=1;" parent="1" vertex="1">
          <mxGeometry x="142.5" y="2507" width="80" height="27.5" as="geometry" />
        </mxCell>
        <mxCell id="QDssYqvsrF62F8crRkIU-98" style="edgeStyle=orthogonalEdgeStyle;rounded=0;orthogonalLoop=1;jettySize=auto;html=1;exitX=0;exitY=0.5;exitDx=0;exitDy=0;endArrow=none;endFill=0;" parent="1" source="QDssYqvsrF62F8crRkIU-100" edge="1">
          <mxGeometry relative="1" as="geometry">
            <mxPoint x="102.5" y="2377" as="targetPoint" />
          </mxGeometry>
        </mxCell>
        <mxCell id="QDssYqvsrF62F8crRkIU-99" style="edgeStyle=orthogonalEdgeStyle;rounded=0;orthogonalLoop=1;jettySize=auto;html=1;exitX=1;exitY=0.5;exitDx=0;exitDy=0;entryX=0;entryY=0.5;entryDx=0;entryDy=0;endArrow=classic;endFill=1;" parent="1" source="QDssYqvsrF62F8crRkIU-100" target="QDssYqvsrF62F8crRkIU-106" edge="1">
          <mxGeometry relative="1" as="geometry" />
        </mxCell>
        <mxCell id="QDssYqvsrF62F8crRkIU-100" value="FOR" style="rounded=0;whiteSpace=wrap;html=1;strokeWidth=1;" parent="1" vertex="1">
          <mxGeometry x="142.5" y="2544.5" width="80" height="27.5" as="geometry" />
        </mxCell>
        <mxCell id="QDssYqvsrF62F8crRkIU-101" style="edgeStyle=orthogonalEdgeStyle;rounded=0;orthogonalLoop=1;jettySize=auto;html=1;exitX=0;exitY=0.5;exitDx=0;exitDy=0;endArrow=none;endFill=0;" parent="1" source="QDssYqvsrF62F8crRkIU-103" edge="1">
          <mxGeometry relative="1" as="geometry">
            <mxPoint x="102.5" y="2377" as="targetPoint" />
          </mxGeometry>
        </mxCell>
        <mxCell id="QDssYqvsrF62F8crRkIU-102" style="edgeStyle=orthogonalEdgeStyle;rounded=0;orthogonalLoop=1;jettySize=auto;html=1;exitX=1;exitY=0.5;exitDx=0;exitDy=0;entryX=0;entryY=0.5;entryDx=0;entryDy=0;endArrow=classic;endFill=1;" parent="1" source="QDssYqvsrF62F8crRkIU-103" target="QDssYqvsrF62F8crRkIU-106" edge="1">
          <mxGeometry relative="1" as="geometry" />
        </mxCell>
        <mxCell id="QDssYqvsrF62F8crRkIU-103" value="WHILE" style="rounded=0;whiteSpace=wrap;html=1;strokeWidth=1;" parent="1" vertex="1">
          <mxGeometry x="142.5" y="2584.5" width="80" height="27.5" as="geometry" />
        </mxCell>
        <mxCell id="QDssYqvsrF62F8crRkIU-104" style="edgeStyle=orthogonalEdgeStyle;rounded=0;orthogonalLoop=1;jettySize=auto;html=1;exitX=1;exitY=0.5;exitDx=0;exitDy=0;entryX=0;entryY=0.5;entryDx=0;entryDy=0;endArrow=classic;endFill=1;" parent="1" source="QDssYqvsrF62F8crRkIU-105" target="QDssYqvsrF62F8crRkIU-106" edge="1">
          <mxGeometry relative="1" as="geometry" />
        </mxCell>
        <mxCell id="QDssYqvsrF62F8crRkIU-105" value="CALL MODULE" style="rounded=0;whiteSpace=wrap;html=1;strokeWidth=1;" parent="1" vertex="1">
          <mxGeometry x="142.5" y="2624.5" width="80" height="27.5" as="geometry" />
        </mxCell>
        <mxCell id="QDssYqvsrF62F8crRkIU-106" value="" style="rounded=0;whiteSpace=wrap;html=1;strokeWidth=1;strokeColor=none;" parent="1" vertex="1">
          <mxGeometry x="299.5" y="2389.5" width="23" height="27.5" as="geometry" />
        </mxCell>
        <mxCell id="QDssYqvsrF62F8crRkIU-118" style="edgeStyle=orthogonalEdgeStyle;rounded=0;orthogonalLoop=1;jettySize=auto;html=1;exitX=0;exitY=0.5;exitDx=0;exitDy=0;entryX=0.5;entryY=1;entryDx=0;entryDy=0;endArrow=none;endFill=0;" parent="1" source="QDssYqvsrF62F8crRkIU-108" target="QDssYqvsrF62F8crRkIU-6" edge="1">
          <mxGeometry relative="1" as="geometry" />
        </mxCell>
        <mxCell id="QDssYqvsrF62F8crRkIU-120" style="edgeStyle=orthogonalEdgeStyle;rounded=0;orthogonalLoop=1;jettySize=auto;html=1;exitX=1;exitY=0.5;exitDx=0;exitDy=0;entryX=0;entryY=0.5;entryDx=0;entryDy=0;endArrow=classic;endFill=1;" parent="1" source="QDssYqvsrF62F8crRkIU-108" target="QDssYqvsrF62F8crRkIU-114" edge="1">
          <mxGeometry relative="1" as="geometry" />
        </mxCell>
        <mxCell id="QDssYqvsrF62F8crRkIU-108" value="float" style="rounded=1;whiteSpace=wrap;html=1;strokeWidth=1;imageWidth=24;arcSize=50;" parent="1" vertex="1">
          <mxGeometry x="95.5" y="1837.5" width="40" height="30" as="geometry" />
        </mxCell>
        <mxCell id="QDssYqvsrF62F8crRkIU-121" style="edgeStyle=orthogonalEdgeStyle;rounded=0;orthogonalLoop=1;jettySize=auto;html=1;exitX=1;exitY=0.5;exitDx=0;exitDy=0;entryX=0;entryY=0.5;entryDx=0;entryDy=0;endArrow=classic;endFill=1;" parent="1" source="QDssYqvsrF62F8crRkIU-111" target="QDssYqvsrF62F8crRkIU-114" edge="1">
          <mxGeometry relative="1" as="geometry" />
        </mxCell>
        <mxCell id="QDssYqvsrF62F8crRkIU-111" value="char" style="rounded=1;whiteSpace=wrap;html=1;strokeWidth=1;imageWidth=24;arcSize=50;" parent="1" vertex="1">
          <mxGeometry x="95.5" y="1875" width="40" height="30" as="geometry" />
        </mxCell>
        <mxCell id="QDssYqvsrF62F8crRkIU-117" style="edgeStyle=orthogonalEdgeStyle;rounded=0;orthogonalLoop=1;jettySize=auto;html=1;exitX=0;exitY=0.5;exitDx=0;exitDy=0;entryX=0.5;entryY=1;entryDx=0;entryDy=0;endArrow=none;endFill=0;" parent="1" source="QDssYqvsrF62F8crRkIU-112" target="QDssYqvsrF62F8crRkIU-6" edge="1">
          <mxGeometry relative="1" as="geometry" />
        </mxCell>
        <mxCell id="QDssYqvsrF62F8crRkIU-119" style="edgeStyle=orthogonalEdgeStyle;rounded=0;orthogonalLoop=1;jettySize=auto;html=1;exitX=1;exitY=0.5;exitDx=0;exitDy=0;entryX=0;entryY=0.5;entryDx=0;entryDy=0;endArrow=classic;endFill=1;" parent="1" source="QDssYqvsrF62F8crRkIU-112" target="QDssYqvsrF62F8crRkIU-114" edge="1">
          <mxGeometry relative="1" as="geometry" />
        </mxCell>
        <mxCell id="QDssYqvsrF62F8crRkIU-112" value="int" style="rounded=1;whiteSpace=wrap;html=1;strokeWidth=1;imageWidth=24;arcSize=50;" parent="1" vertex="1">
          <mxGeometry x="95.5" y="1797.5" width="40" height="30" as="geometry" />
        </mxCell>
        <mxCell id="QDssYqvsrF62F8crRkIU-114" value="" style="rounded=1;whiteSpace=wrap;html=1;strokeWidth=1;imageWidth=24;arcSize=50;strokeColor=none;" parent="1" vertex="1">
          <mxGeometry x="175.5" y="1805.63" width="10" height="13.75" as="geometry" />
        </mxCell>
        <mxCell id="QDssYqvsrF62F8crRkIU-128" style="edgeStyle=orthogonalEdgeStyle;rounded=0;orthogonalLoop=1;jettySize=auto;html=1;exitX=1;exitY=0.5;exitDx=0;exitDy=0;entryX=0;entryY=0.5;entryDx=0;entryDy=0;endArrow=classic;endFill=1;" parent="1" source="QDssYqvsrF62F8crRkIU-122" target="QDssYqvsrF62F8crRkIU-123" edge="1">
          <mxGeometry relative="1" as="geometry" />
        </mxCell>
        <mxCell id="QDssYqvsrF62F8crRkIU-122" value="id" style="rounded=1;whiteSpace=wrap;html=1;strokeWidth=1;imageWidth=24;arcSize=50;" parent="1" vertex="1">
          <mxGeometry x="142.5" y="2723" width="40" height="30" as="geometry" />
        </mxCell>
        <mxCell id="QDssYqvsrF62F8crRkIU-129" style="edgeStyle=orthogonalEdgeStyle;rounded=0;orthogonalLoop=1;jettySize=auto;html=1;exitX=1;exitY=0.5;exitDx=0;exitDy=0;entryX=0;entryY=0.5;entryDx=0;entryDy=0;endArrow=classic;endFill=1;" parent="1" source="QDssYqvsrF62F8crRkIU-123" target="QDssYqvsrF62F8crRkIU-125" edge="1">
          <mxGeometry relative="1" as="geometry" />
        </mxCell>
        <mxCell id="QDssYqvsrF62F8crRkIU-123" value="=" style="rounded=1;whiteSpace=wrap;html=1;strokeWidth=1;imageWidth=24;arcSize=50;" parent="1" vertex="1">
          <mxGeometry x="212.5" y="2723" width="40" height="30" as="geometry" />
        </mxCell>
        <mxCell id="QDssYqvsrF62F8crRkIU-125" value="EXPRESION" style="rounded=0;whiteSpace=wrap;html=1;strokeWidth=1;" parent="1" vertex="1">
          <mxGeometry x="282.5" y="2724.25" width="80" height="27.5" as="geometry" />
        </mxCell>
        <mxCell id="QDssYqvsrF62F8crRkIU-134" style="edgeStyle=orthogonalEdgeStyle;rounded=0;orthogonalLoop=1;jettySize=auto;html=1;exitX=1;exitY=0.5;exitDx=0;exitDy=0;entryX=0;entryY=0.5;entryDx=0;entryDy=0;endArrow=classic;endFill=1;" parent="1" source="QDssYqvsrF62F8crRkIU-130" target="QDssYqvsrF62F8crRkIU-131" edge="1">
          <mxGeometry relative="1" as="geometry" />
        </mxCell>
        <mxCell id="QDssYqvsrF62F8crRkIU-130" value="EXP" style="rounded=0;whiteSpace=wrap;html=1;strokeWidth=1;" parent="1" vertex="1">
          <mxGeometry x="140.5" y="2819.5" width="70" height="27.5" as="geometry" />
        </mxCell>
        <mxCell id="QDssYqvsrF62F8crRkIU-135" style="edgeStyle=orthogonalEdgeStyle;rounded=0;orthogonalLoop=1;jettySize=auto;html=1;exitX=1;exitY=0.5;exitDx=0;exitDy=0;entryX=0;entryY=0.5;entryDx=0;entryDy=0;endArrow=classic;endFill=1;" parent="1" source="QDssYqvsrF62F8crRkIU-131" target="QDssYqvsrF62F8crRkIU-132" edge="1">
          <mxGeometry relative="1" as="geometry" />
        </mxCell>
        <mxCell id="QDssYqvsrF62F8crRkIU-131" value="and" style="rounded=1;whiteSpace=wrap;html=1;strokeWidth=1;imageWidth=24;arcSize=50;" parent="1" vertex="1">
          <mxGeometry x="230.5" y="2818.25" width="40" height="30" as="geometry" />
        </mxCell>
        <mxCell id="QDssYqvsrF62F8crRkIU-132" value="" style="rounded=0;whiteSpace=wrap;html=1;strokeWidth=1;strokeColor=none;" parent="1" vertex="1">
          <mxGeometry x="315.5" y="2819.5" width="10" height="27.5" as="geometry" />
        </mxCell>
        <mxCell id="QDssYqvsrF62F8crRkIU-144" style="edgeStyle=orthogonalEdgeStyle;rounded=0;orthogonalLoop=1;jettySize=auto;html=1;exitX=1;exitY=0.5;exitDx=0;exitDy=0;entryX=0;entryY=0.5;entryDx=0;entryDy=0;endArrow=classic;endFill=1;" parent="1" source="QDssYqvsrF62F8crRkIU-138" target="QDssYqvsrF62F8crRkIU-139" edge="1">
          <mxGeometry relative="1" as="geometry" />
        </mxCell>
        <mxCell id="QDssYqvsrF62F8crRkIU-138" value="EXP AUX" style="rounded=0;whiteSpace=wrap;html=1;strokeWidth=1;" parent="1" vertex="1">
          <mxGeometry x="118" y="2915.75" width="70" height="27.5" as="geometry" />
        </mxCell>
        <mxCell id="QDssYqvsrF62F8crRkIU-145" style="edgeStyle=orthogonalEdgeStyle;rounded=0;orthogonalLoop=1;jettySize=auto;html=1;exitX=1;exitY=0.5;exitDx=0;exitDy=0;entryX=0;entryY=0.5;entryDx=0;entryDy=0;endArrow=classic;endFill=1;" parent="1" source="QDssYqvsrF62F8crRkIU-139" edge="1">
          <mxGeometry relative="1" as="geometry">
            <mxPoint x="287" y="2929.25" as="targetPoint" />
          </mxGeometry>
        </mxCell>
        <mxCell id="QDssYqvsrF62F8crRkIU-139" value="or" style="rounded=1;whiteSpace=wrap;html=1;strokeWidth=1;imageWidth=24;arcSize=50;" parent="1" vertex="1">
          <mxGeometry x="218" y="2914.5" width="40" height="30" as="geometry" />
        </mxCell>
        <mxCell id="QDssYqvsrF62F8crRkIU-141" value="" style="endArrow=classic;html=1;" parent="1" edge="1">
          <mxGeometry width="50" height="50" relative="1" as="geometry">
            <mxPoint x="290.5" y="2834.75" as="sourcePoint" />
            <mxPoint x="125.5" y="2834.75" as="targetPoint" />
            <Array as="points">
              <mxPoint x="290.5" y="2860.75" />
              <mxPoint x="125.5" y="2860.75" />
            </Array>
          </mxGeometry>
        </mxCell>
        <mxCell id="QDssYqvsrF62F8crRkIU-143" value="" style="rounded=0;whiteSpace=wrap;html=1;strokeWidth=1;strokeColor=none;" parent="1" vertex="1">
          <mxGeometry x="291.5" y="2914.5" width="11" height="27.5" as="geometry" />
        </mxCell>
        <mxCell id="QDssYqvsrF62F8crRkIU-146" value="" style="endArrow=classic;html=1;" parent="1" edge="1">
          <mxGeometry width="50" height="50" relative="1" as="geometry">
            <mxPoint x="273" y="2933.75" as="sourcePoint" />
            <mxPoint x="103" y="2933.25" as="targetPoint" />
            <Array as="points">
              <mxPoint x="273" y="2963.25" />
              <mxPoint x="103" y="2963.25" />
            </Array>
          </mxGeometry>
        </mxCell>
        <mxCell id="QDssYqvsrF62F8crRkIU-155" style="edgeStyle=orthogonalEdgeStyle;rounded=0;orthogonalLoop=1;jettySize=auto;html=1;exitX=1;exitY=0.5;exitDx=0;exitDy=0;entryX=0;entryY=0.5;entryDx=0;entryDy=0;endArrow=none;endFill=0;" parent="1" source="QDssYqvsrF62F8crRkIU-147" target="QDssYqvsrF62F8crRkIU-149" edge="1">
          <mxGeometry relative="1" as="geometry" />
        </mxCell>
        <mxCell id="QDssYqvsrF62F8crRkIU-156" style="edgeStyle=orthogonalEdgeStyle;rounded=0;orthogonalLoop=1;jettySize=auto;html=1;exitX=1;exitY=0.5;exitDx=0;exitDy=0;entryX=0;entryY=0.5;entryDx=0;entryDy=0;endArrow=none;endFill=0;" parent="1" source="QDssYqvsrF62F8crRkIU-147" target="QDssYqvsrF62F8crRkIU-152" edge="1">
          <mxGeometry relative="1" as="geometry" />
        </mxCell>
        <mxCell id="QDssYqvsrF62F8crRkIU-157" style="edgeStyle=orthogonalEdgeStyle;rounded=0;orthogonalLoop=1;jettySize=auto;html=1;exitX=1;exitY=0.5;exitDx=0;exitDy=0;entryX=0;entryY=0.5;entryDx=0;entryDy=0;endArrow=none;endFill=0;" parent="1" source="QDssYqvsrF62F8crRkIU-147" target="QDssYqvsrF62F8crRkIU-150" edge="1">
          <mxGeometry relative="1" as="geometry" />
        </mxCell>
        <mxCell id="QDssYqvsrF62F8crRkIU-158" style="edgeStyle=orthogonalEdgeStyle;rounded=0;orthogonalLoop=1;jettySize=auto;html=1;exitX=1;exitY=0.5;exitDx=0;exitDy=0;entryX=0;entryY=0.5;entryDx=0;entryDy=0;endArrow=none;endFill=0;" parent="1" source="QDssYqvsrF62F8crRkIU-147" target="QDssYqvsrF62F8crRkIU-154" edge="1">
          <mxGeometry relative="1" as="geometry" />
        </mxCell>
        <mxCell id="QDssYqvsrF62F8crRkIU-159" style="edgeStyle=orthogonalEdgeStyle;rounded=0;orthogonalLoop=1;jettySize=auto;html=1;exitX=1;exitY=0.5;exitDx=0;exitDy=0;entryX=0;entryY=0.5;entryDx=0;entryDy=0;endArrow=none;endFill=0;" parent="1" source="QDssYqvsrF62F8crRkIU-147" target="QDssYqvsrF62F8crRkIU-151" edge="1">
          <mxGeometry relative="1" as="geometry" />
        </mxCell>
        <mxCell id="QDssYqvsrF62F8crRkIU-160" style="edgeStyle=orthogonalEdgeStyle;rounded=0;orthogonalLoop=1;jettySize=auto;html=1;exitX=1;exitY=0.5;exitDx=0;exitDy=0;entryX=0;entryY=0.5;entryDx=0;entryDy=0;endArrow=none;endFill=0;" parent="1" source="QDssYqvsrF62F8crRkIU-147" target="QDssYqvsrF62F8crRkIU-153" edge="1">
          <mxGeometry relative="1" as="geometry" />
        </mxCell>
        <mxCell id="QDssYqvsrF62F8crRkIU-147" value="EXP AUX 2" style="rounded=0;whiteSpace=wrap;html=1;strokeWidth=1;" parent="1" vertex="1">
          <mxGeometry x="130.5" y="3031.5" width="70" height="27.5" as="geometry" />
        </mxCell>
        <mxCell id="QDssYqvsrF62F8crRkIU-162" style="edgeStyle=orthogonalEdgeStyle;rounded=0;orthogonalLoop=1;jettySize=auto;html=1;exitX=1;exitY=0.5;exitDx=0;exitDy=0;entryX=0;entryY=0.5;entryDx=0;entryDy=0;endArrow=classic;endFill=1;" parent="1" source="QDssYqvsrF62F8crRkIU-149" target="QDssYqvsrF62F8crRkIU-161" edge="1">
          <mxGeometry relative="1" as="geometry" />
        </mxCell>
        <mxCell id="QDssYqvsrF62F8crRkIU-149" value="&amp;gt;" style="rounded=1;whiteSpace=wrap;html=1;strokeWidth=1;imageWidth=24;arcSize=50;" parent="1" vertex="1">
          <mxGeometry x="245.5" y="3030" width="40" height="30" as="geometry" />
        </mxCell>
        <mxCell id="QDssYqvsrF62F8crRkIU-164" style="edgeStyle=orthogonalEdgeStyle;rounded=0;orthogonalLoop=1;jettySize=auto;html=1;exitX=1;exitY=0.5;exitDx=0;exitDy=0;entryX=0;entryY=0.5;entryDx=0;entryDy=0;endArrow=classic;endFill=1;" parent="1" source="QDssYqvsrF62F8crRkIU-150" target="QDssYqvsrF62F8crRkIU-161" edge="1">
          <mxGeometry relative="1" as="geometry" />
        </mxCell>
        <mxCell id="QDssYqvsrF62F8crRkIU-150" value="&amp;lt;" style="rounded=1;whiteSpace=wrap;html=1;strokeWidth=1;imageWidth=24;arcSize=50;" parent="1" vertex="1">
          <mxGeometry x="245.5" y="3101.25" width="40" height="30" as="geometry" />
        </mxCell>
        <mxCell id="QDssYqvsrF62F8crRkIU-166" style="edgeStyle=orthogonalEdgeStyle;rounded=0;orthogonalLoop=1;jettySize=auto;html=1;exitX=1;exitY=0.5;exitDx=0;exitDy=0;entryX=0;entryY=0.5;entryDx=0;entryDy=0;endArrow=classic;endFill=1;" parent="1" source="QDssYqvsrF62F8crRkIU-151" target="QDssYqvsrF62F8crRkIU-161" edge="1">
          <mxGeometry relative="1" as="geometry" />
        </mxCell>
        <mxCell id="QDssYqvsrF62F8crRkIU-151" value="!=" style="rounded=1;whiteSpace=wrap;html=1;strokeWidth=1;imageWidth=24;arcSize=50;" parent="1" vertex="1">
          <mxGeometry x="245.5" y="3172.75" width="40" height="30" as="geometry" />
        </mxCell>
        <mxCell id="QDssYqvsrF62F8crRkIU-163" style="edgeStyle=orthogonalEdgeStyle;rounded=0;orthogonalLoop=1;jettySize=auto;html=1;exitX=1;exitY=0.5;exitDx=0;exitDy=0;entryX=0;entryY=0.5;entryDx=0;entryDy=0;endArrow=classic;endFill=1;" parent="1" source="QDssYqvsrF62F8crRkIU-152" target="QDssYqvsrF62F8crRkIU-161" edge="1">
          <mxGeometry relative="1" as="geometry" />
        </mxCell>
        <mxCell id="QDssYqvsrF62F8crRkIU-152" value="&amp;gt;=" style="rounded=1;whiteSpace=wrap;html=1;strokeWidth=1;imageWidth=24;arcSize=50;" parent="1" vertex="1">
          <mxGeometry x="245.5" y="3065.5" width="40" height="30" as="geometry" />
        </mxCell>
        <mxCell id="QDssYqvsrF62F8crRkIU-167" style="edgeStyle=orthogonalEdgeStyle;rounded=0;orthogonalLoop=1;jettySize=auto;html=1;exitX=1;exitY=0.5;exitDx=0;exitDy=0;entryX=0;entryY=0.5;entryDx=0;entryDy=0;endArrow=classic;endFill=1;" parent="1" source="QDssYqvsrF62F8crRkIU-153" target="QDssYqvsrF62F8crRkIU-161" edge="1">
          <mxGeometry relative="1" as="geometry" />
        </mxCell>
        <mxCell id="QDssYqvsrF62F8crRkIU-153" value="==" style="rounded=1;whiteSpace=wrap;html=1;strokeWidth=1;imageWidth=24;arcSize=50;" parent="1" vertex="1">
          <mxGeometry x="245.5" y="3208.25" width="40" height="30" as="geometry" />
        </mxCell>
        <mxCell id="QDssYqvsrF62F8crRkIU-165" style="edgeStyle=orthogonalEdgeStyle;rounded=0;orthogonalLoop=1;jettySize=auto;html=1;exitX=1;exitY=0.5;exitDx=0;exitDy=0;entryX=0;entryY=0.5;entryDx=0;entryDy=0;endArrow=classic;endFill=1;" parent="1" source="QDssYqvsrF62F8crRkIU-154" target="QDssYqvsrF62F8crRkIU-161" edge="1">
          <mxGeometry relative="1" as="geometry" />
        </mxCell>
        <mxCell id="QDssYqvsrF62F8crRkIU-154" value="&amp;lt;=" style="rounded=1;whiteSpace=wrap;html=1;strokeWidth=1;imageWidth=24;arcSize=50;" parent="1" vertex="1">
          <mxGeometry x="245.5" y="3137.25" width="40" height="30" as="geometry" />
        </mxCell>
        <mxCell id="QDssYqvsrF62F8crRkIU-161" value="" style="rounded=0;whiteSpace=wrap;html=1;strokeWidth=1;strokeColor=none;" parent="1" vertex="1">
          <mxGeometry x="345.5" y="3031.25" width="10" height="27.5" as="geometry" />
        </mxCell>
        <mxCell id="0wjpcV22vmfzBX8xie9R-8" style="edgeStyle=orthogonalEdgeStyle;rounded=0;orthogonalLoop=1;jettySize=auto;html=1;exitX=1;exitY=0.5;exitDx=0;exitDy=0;entryX=0;entryY=0.5;entryDx=0;entryDy=0;" edge="1" parent="1" source="0wjpcV22vmfzBX8xie9R-1" target="0wjpcV22vmfzBX8xie9R-2">
          <mxGeometry relative="1" as="geometry" />
        </mxCell>
        <mxCell id="0wjpcV22vmfzBX8xie9R-1" value="MODULE" style="rounded=0;whiteSpace=wrap;html=1;strokeWidth=1;" vertex="1" parent="1">
          <mxGeometry x="444.5" y="1255.25" width="70" height="27.5" as="geometry" />
        </mxCell>
        <mxCell id="0wjpcV22vmfzBX8xie9R-2" value="MAIN" style="rounded=0;whiteSpace=wrap;html=1;strokeWidth=1;" vertex="1" parent="1">
          <mxGeometry x="561.5" y="1255.25" width="70" height="27.5" as="geometry" />
        </mxCell>
        <mxCell id="0wjpcV22vmfzBX8xie9R-9" value="" style="endArrow=classic;html=1;" edge="1" parent="1">
          <mxGeometry width="50" height="50" relative="1" as="geometry">
            <mxPoint x="333.5" y="1270" as="sourcePoint" />
            <mxPoint x="424.5" y="1270" as="targetPoint" />
            <Array as="points">
              <mxPoint x="333.5" y="1295" />
              <mxPoint x="424.5" y="1295" />
            </Array>
          </mxGeometry>
        </mxCell>
        <mxCell id="0wjpcV22vmfzBX8xie9R-10" value="" style="endArrow=classic;html=1;" edge="1" parent="1">
          <mxGeometry width="50" height="50" relative="1" as="geometry">
            <mxPoint x="322" y="1270" as="sourcePoint" />
            <mxPoint x="525.5" y="1270" as="targetPoint" />
            <Array as="points">
              <mxPoint x="322" y="1304" />
              <mxPoint x="525.5" y="1304" />
            </Array>
          </mxGeometry>
        </mxCell>
        <mxCell id="0wjpcV22vmfzBX8xie9R-12" value="" style="endArrow=classic;html=1;" edge="1" parent="1">
          <mxGeometry width="50" height="50" relative="1" as="geometry">
            <mxPoint x="425.5" y="1265" as="sourcePoint" />
            <mxPoint x="544.5" y="1270" as="targetPoint" />
            <Array as="points">
              <mxPoint x="425.5" y="1241" />
              <mxPoint x="544.5" y="1241" />
            </Array>
          </mxGeometry>
        </mxCell>
        <mxCell id="0wjpcV22vmfzBX8xie9R-13" value="" style="endArrow=classic;html=1;exitX=1;exitY=0.5;exitDx=0;exitDy=0;" edge="1" parent="1" source="0wjpcV22vmfzBX8xie9R-2">
          <mxGeometry width="50" height="50" relative="1" as="geometry">
            <mxPoint x="654.5" y="1293" as="sourcePoint" />
            <mxPoint x="673.5" y="1269" as="targetPoint" />
          </mxGeometry>
        </mxCell>
        <mxCell id="0wjpcV22vmfzBX8xie9R-17" style="edgeStyle=orthogonalEdgeStyle;rounded=0;orthogonalLoop=1;jettySize=auto;html=1;exitX=1;exitY=0.5;exitDx=0;exitDy=0;entryX=0;entryY=0.5;entryDx=0;entryDy=0;" edge="1" parent="1" source="0wjpcV22vmfzBX8xie9R-15" target="QDssYqvsrF62F8crRkIU-38">
          <mxGeometry relative="1" as="geometry" />
        </mxCell>
        <mxCell id="0wjpcV22vmfzBX8xie9R-15" value="main" style="rounded=1;whiteSpace=wrap;html=1;strokeWidth=1;imageWidth=24;arcSize=50;" vertex="1" parent="1">
          <mxGeometry x="108" y="1365" width="70" height="30" as="geometry" />
        </mxCell>
        <mxCell id="0wjpcV22vmfzBX8xie9R-18" value="" style="endArrow=classic;html=1;exitX=1;exitY=0.5;exitDx=0;exitDy=0;" edge="1" parent="1" source="QDssYqvsrF62F8crRkIU-38">
          <mxGeometry width="50" height="50" relative="1" as="geometry">
            <mxPoint x="326.5" y="1450" as="sourcePoint" />
            <mxPoint x="362.5" y="1380" as="targetPoint" />
          </mxGeometry>
        </mxCell>
        <mxCell id="0wjpcV22vmfzBX8xie9R-25" style="edgeStyle=orthogonalEdgeStyle;rounded=0;orthogonalLoop=1;jettySize=auto;html=1;exitX=1;exitY=0.5;exitDx=0;exitDy=0;entryX=0;entryY=0.5;entryDx=0;entryDy=0;" edge="1" parent="1" source="0wjpcV22vmfzBX8xie9R-19" target="0wjpcV22vmfzBX8xie9R-22">
          <mxGeometry relative="1" as="geometry" />
        </mxCell>
        <mxCell id="0wjpcV22vmfzBX8xie9R-19" value="{" style="rounded=1;whiteSpace=wrap;html=1;strokeWidth=1;imageWidth=24;arcSize=50;" vertex="1" parent="1">
          <mxGeometry x="170" y="1980" width="40" height="30" as="geometry" />
        </mxCell>
        <mxCell id="0wjpcV22vmfzBX8xie9R-20" value="}" style="rounded=1;whiteSpace=wrap;html=1;strokeWidth=1;imageWidth=24;arcSize=50;" vertex="1" parent="1">
          <mxGeometry x="494.5" y="1980" width="40" height="30" as="geometry" />
        </mxCell>
        <mxCell id="0wjpcV22vmfzBX8xie9R-26" style="edgeStyle=orthogonalEdgeStyle;rounded=0;orthogonalLoop=1;jettySize=auto;html=1;exitX=1;exitY=0.5;exitDx=0;exitDy=0;" edge="1" parent="1" source="0wjpcV22vmfzBX8xie9R-22" target="0wjpcV22vmfzBX8xie9R-23">
          <mxGeometry relative="1" as="geometry" />
        </mxCell>
        <mxCell id="0wjpcV22vmfzBX8xie9R-22" value="VARS" style="rounded=0;whiteSpace=wrap;html=1;strokeWidth=1;" vertex="1" parent="1">
          <mxGeometry x="246" y="1981.25" width="70" height="27.5" as="geometry" />
        </mxCell>
        <mxCell id="0wjpcV22vmfzBX8xie9R-27" style="edgeStyle=orthogonalEdgeStyle;rounded=0;orthogonalLoop=1;jettySize=auto;html=1;exitX=1;exitY=0.5;exitDx=0;exitDy=0;entryX=0;entryY=0.5;entryDx=0;entryDy=0;" edge="1" parent="1" source="0wjpcV22vmfzBX8xie9R-23" target="0wjpcV22vmfzBX8xie9R-20">
          <mxGeometry relative="1" as="geometry" />
        </mxCell>
        <mxCell id="0wjpcV22vmfzBX8xie9R-23" value="ESTATUTO AUX" style="rounded=0;whiteSpace=wrap;html=1;strokeWidth=1;" vertex="1" parent="1">
          <mxGeometry x="361" y="1981.25" width="100" height="27.5" as="geometry" />
        </mxCell>
        <mxCell id="0wjpcV22vmfzBX8xie9R-28" value="" style="endArrow=classic;html=1;" edge="1" parent="1">
          <mxGeometry width="50" height="50" relative="1" as="geometry">
            <mxPoint x="220" y="1995.5" as="sourcePoint" />
            <mxPoint x="480" y="1995.5" as="targetPoint" />
            <Array as="points">
              <mxPoint x="220" y="2035.5" />
              <mxPoint x="480" y="2035.5" />
            </Array>
          </mxGeometry>
        </mxCell>
        <mxCell id="0wjpcV22vmfzBX8xie9R-29" value="" style="endArrow=classic;html=1;" edge="1" parent="1">
          <mxGeometry width="50" height="50" relative="1" as="geometry">
            <mxPoint x="225.5" y="1994.5" as="sourcePoint" />
            <mxPoint x="342" y="1994.5" as="targetPoint" />
            <Array as="points">
              <mxPoint x="225" y="1970.5" />
              <mxPoint x="342" y="1970.5" />
            </Array>
          </mxGeometry>
        </mxCell>
        <mxCell id="0wjpcV22vmfzBX8xie9R-30" value="" style="endArrow=classic;html=1;" edge="1" parent="1">
          <mxGeometry width="50" height="50" relative="1" as="geometry">
            <mxPoint x="321" y="1996.5" as="sourcePoint" />
            <mxPoint x="470" y="1996.5" as="targetPoint" />
            <Array as="points">
              <mxPoint x="321" y="2029.5" />
              <mxPoint x="470" y="2029.5" />
            </Array>
          </mxGeometry>
        </mxCell>
        <mxCell id="0wjpcV22vmfzBX8xie9R-31" value="" style="endArrow=classic;html=1;exitX=1;exitY=0.5;exitDx=0;exitDy=0;" edge="1" parent="1" source="0wjpcV22vmfzBX8xie9R-20">
          <mxGeometry width="50" height="50" relative="1" as="geometry">
            <mxPoint x="564" y="2017.5" as="sourcePoint" />
            <mxPoint x="578" y="1995.5" as="targetPoint" />
          </mxGeometry>
        </mxCell>
        <mxCell id="0wjpcV22vmfzBX8xie9R-36" style="edgeStyle=orthogonalEdgeStyle;rounded=0;orthogonalLoop=1;jettySize=auto;html=1;exitX=1;exitY=0.5;exitDx=0;exitDy=0;entryX=0;entryY=0.5;entryDx=0;entryDy=0;" edge="1" parent="1" source="0wjpcV22vmfzBX8xie9R-32" target="0wjpcV22vmfzBX8xie9R-34">
          <mxGeometry relative="1" as="geometry" />
        </mxCell>
        <mxCell id="0wjpcV22vmfzBX8xie9R-32" value="{" style="rounded=1;whiteSpace=wrap;html=1;strokeWidth=1;imageWidth=24;arcSize=50;" vertex="1" parent="1">
          <mxGeometry x="135.5" y="2153" width="40" height="30" as="geometry" />
        </mxCell>
        <mxCell id="0wjpcV22vmfzBX8xie9R-33" value="}" style="rounded=1;whiteSpace=wrap;html=1;strokeWidth=1;imageWidth=24;arcSize=50;" vertex="1" parent="1">
          <mxGeometry x="357" y="2153" width="40" height="30" as="geometry" />
        </mxCell>
        <mxCell id="0wjpcV22vmfzBX8xie9R-37" style="edgeStyle=orthogonalEdgeStyle;rounded=0;orthogonalLoop=1;jettySize=auto;html=1;exitX=1;exitY=0.5;exitDx=0;exitDy=0;entryX=0;entryY=0.5;entryDx=0;entryDy=0;" edge="1" parent="1" source="0wjpcV22vmfzBX8xie9R-34" target="0wjpcV22vmfzBX8xie9R-33">
          <mxGeometry relative="1" as="geometry" />
        </mxCell>
        <mxCell id="0wjpcV22vmfzBX8xie9R-34" value="ESTATUTO AUX" style="rounded=0;whiteSpace=wrap;html=1;strokeWidth=1;" vertex="1" parent="1">
          <mxGeometry x="213.5" y="2154.25" width="100" height="27.5" as="geometry" />
        </mxCell>
        <mxCell id="0wjpcV22vmfzBX8xie9R-38" value="" style="endArrow=classic;html=1;" edge="1" parent="1">
          <mxGeometry width="50" height="50" relative="1" as="geometry">
            <mxPoint x="182.5" y="2169" as="sourcePoint" />
            <mxPoint x="338.5" y="2169" as="targetPoint" />
            <Array as="points">
              <mxPoint x="182.5" y="2191" />
              <mxPoint x="338.5" y="2191" />
            </Array>
          </mxGeometry>
        </mxCell>
        <mxCell id="0wjpcV22vmfzBX8xie9R-39" value="" style="endArrow=classic;html=1;exitX=1;exitY=0.5;exitDx=0;exitDy=0;" edge="1" parent="1" source="0wjpcV22vmfzBX8xie9R-33">
          <mxGeometry width="50" height="50" relative="1" as="geometry">
            <mxPoint x="401" y="2193" as="sourcePoint" />
            <mxPoint x="438.5" y="2168" as="targetPoint" />
          </mxGeometry>
        </mxCell>
        <mxCell id="0wjpcV22vmfzBX8xie9R-52" style="edgeStyle=orthogonalEdgeStyle;rounded=0;orthogonalLoop=1;jettySize=auto;html=1;exitX=1;exitY=0.5;exitDx=0;exitDy=0;entryX=0;entryY=0.5;entryDx=0;entryDy=0;" edge="1" parent="1" source="0wjpcV22vmfzBX8xie9R-40" target="0wjpcV22vmfzBX8xie9R-41">
          <mxGeometry relative="1" as="geometry" />
        </mxCell>
        <mxCell id="0wjpcV22vmfzBX8xie9R-40" value="id" style="rounded=1;whiteSpace=wrap;html=1;strokeWidth=1;imageWidth=24;arcSize=50;" vertex="1" parent="1">
          <mxGeometry x="137.5" y="1558.5" width="40" height="30" as="geometry" />
        </mxCell>
        <mxCell id="0wjpcV22vmfzBX8xie9R-54" style="edgeStyle=orthogonalEdgeStyle;rounded=0;orthogonalLoop=1;jettySize=auto;html=1;exitX=1;exitY=0.5;exitDx=0;exitDy=0;entryX=0;entryY=0.5;entryDx=0;entryDy=0;" edge="1" parent="1" source="0wjpcV22vmfzBX8xie9R-41" target="0wjpcV22vmfzBX8xie9R-53">
          <mxGeometry relative="1" as="geometry" />
        </mxCell>
        <mxCell id="0wjpcV22vmfzBX8xie9R-41" value="&lt;b&gt;&lt;font style=&quot;font-size: 14px&quot;&gt;:&lt;/font&gt;&lt;/b&gt;" style="rounded=1;whiteSpace=wrap;html=1;strokeWidth=1;imageWidth=24;arcSize=50;" vertex="1" parent="1">
          <mxGeometry x="214.5" y="1558.5" width="40" height="30" as="geometry" />
        </mxCell>
        <mxCell id="0wjpcV22vmfzBX8xie9R-42" value="&lt;b&gt;&lt;font style=&quot;font-size: 14px&quot;&gt;.&lt;/font&gt;&lt;/b&gt;" style="rounded=1;whiteSpace=wrap;html=1;strokeWidth=1;imageWidth=24;arcSize=50;" vertex="1" parent="1">
          <mxGeometry x="458.5" y="1558.5" width="40" height="30" as="geometry" />
        </mxCell>
        <mxCell id="0wjpcV22vmfzBX8xie9R-43" value="&lt;b&gt;&lt;font style=&quot;font-size: 14px&quot;&gt;;&lt;/font&gt;&lt;/b&gt;" style="rounded=1;whiteSpace=wrap;html=1;strokeWidth=1;imageWidth=24;arcSize=50;" vertex="1" parent="1">
          <mxGeometry x="393.5" y="1558.5" width="40" height="30" as="geometry" />
        </mxCell>
        <mxCell id="0wjpcV22vmfzBX8xie9R-49" style="edgeStyle=orthogonalEdgeStyle;rounded=0;orthogonalLoop=1;jettySize=auto;html=1;exitX=1;exitY=0.5;exitDx=0;exitDy=0;" edge="1" parent="1" source="0wjpcV22vmfzBX8xie9R-45" target="QDssYqvsrF62F8crRkIU-35">
          <mxGeometry relative="1" as="geometry" />
        </mxCell>
        <mxCell id="0wjpcV22vmfzBX8xie9R-45" value="var" style="rounded=1;whiteSpace=wrap;html=1;strokeWidth=1;imageWidth=24;arcSize=50;" vertex="1" parent="1">
          <mxGeometry x="122.5" y="1455" width="40" height="30" as="geometry" />
        </mxCell>
        <mxCell id="0wjpcV22vmfzBX8xie9R-50" value="" style="endArrow=classic;html=1;exitX=1;exitY=0.5;exitDx=0;exitDy=0;" edge="1" parent="1" source="QDssYqvsrF62F8crRkIU-35">
          <mxGeometry width="50" height="50" relative="1" as="geometry">
            <mxPoint x="311" y="1500" as="sourcePoint" />
            <mxPoint x="313" y="1470" as="targetPoint" />
          </mxGeometry>
        </mxCell>
        <mxCell id="0wjpcV22vmfzBX8xie9R-57" style="edgeStyle=orthogonalEdgeStyle;rounded=0;orthogonalLoop=1;jettySize=auto;html=1;exitX=1;exitY=0.5;exitDx=0;exitDy=0;" edge="1" parent="1" source="0wjpcV22vmfzBX8xie9R-53" target="0wjpcV22vmfzBX8xie9R-43">
          <mxGeometry relative="1" as="geometry" />
        </mxCell>
        <mxCell id="0wjpcV22vmfzBX8xie9R-53" value="TIPO" style="rounded=0;whiteSpace=wrap;html=1;strokeWidth=1;" vertex="1" parent="1">
          <mxGeometry x="288.5" y="1559.75" width="70" height="27.5" as="geometry" />
        </mxCell>
        <mxCell id="0wjpcV22vmfzBX8xie9R-59" value="" style="endArrow=classic;html=1;exitX=1;exitY=0.5;exitDx=0;exitDy=0;" edge="1" parent="1" source="0wjpcV22vmfzBX8xie9R-42">
          <mxGeometry width="50" height="50" relative="1" as="geometry">
            <mxPoint x="514.5" y="1601" as="sourcePoint" />
            <mxPoint x="545.5" y="1574" as="targetPoint" />
          </mxGeometry>
        </mxCell>
        <mxCell id="0wjpcV22vmfzBX8xie9R-60" value="" style="endArrow=classic;html=1;exitX=0.5;exitY=1;exitDx=0;exitDy=0;" edge="1" parent="1" source="0wjpcV22vmfzBX8xie9R-43">
          <mxGeometry width="50" height="50" relative="1" as="geometry">
            <mxPoint x="453.5" y="1574" as="sourcePoint" />
            <mxPoint x="109.5" y="1574" as="targetPoint" />
            <Array as="points">
              <mxPoint x="413.5" y="1619" />
              <mxPoint x="109.5" y="1619" />
            </Array>
          </mxGeometry>
        </mxCell>
        <mxCell id="0wjpcV22vmfzBX8xie9R-62" value="" style="endArrow=classic;html=1;entryX=0.5;entryY=0;entryDx=0;entryDy=0;" edge="1" parent="1" target="0wjpcV22vmfzBX8xie9R-42">
          <mxGeometry width="50" height="50" relative="1" as="geometry">
            <mxPoint x="371.5" y="1573" as="sourcePoint" />
            <mxPoint x="434.5" y="1505" as="targetPoint" />
            <Array as="points">
              <mxPoint x="371.5" y="1540" />
              <mxPoint x="478.5" y="1540" />
            </Array>
          </mxGeometry>
        </mxCell>
        <mxCell id="0wjpcV22vmfzBX8xie9R-63" style="edgeStyle=orthogonalEdgeStyle;rounded=0;orthogonalLoop=1;jettySize=auto;html=1;exitX=0.5;exitY=1;exitDx=0;exitDy=0;entryX=0;entryY=0.5;entryDx=0;entryDy=0;" edge="1" source="0wjpcV22vmfzBX8xie9R-64" target="0wjpcV22vmfzBX8xie9R-66" parent="1">
          <mxGeometry relative="1" as="geometry" />
        </mxCell>
        <mxCell id="0wjpcV22vmfzBX8xie9R-64" value="&amp;lt;VARS FUNC&amp;gt;" style="text;html=1;strokeColor=none;fillColor=none;align=center;verticalAlign=middle;whiteSpace=wrap;rounded=0;" vertex="1" parent="1">
          <mxGeometry x="45.5" y="1645" width="87.5" height="20" as="geometry" />
        </mxCell>
        <mxCell id="0wjpcV22vmfzBX8xie9R-65" style="edgeStyle=orthogonalEdgeStyle;rounded=0;orthogonalLoop=1;jettySize=auto;html=1;exitX=1;exitY=0.5;exitDx=0;exitDy=0;entryX=0;entryY=0.5;entryDx=0;entryDy=0;" edge="1" source="0wjpcV22vmfzBX8xie9R-66" target="0wjpcV22vmfzBX8xie9R-68" parent="1">
          <mxGeometry relative="1" as="geometry" />
        </mxCell>
        <mxCell id="0wjpcV22vmfzBX8xie9R-66" value="id" style="rounded=1;whiteSpace=wrap;html=1;strokeWidth=1;imageWidth=24;arcSize=50;" vertex="1" parent="1">
          <mxGeometry x="137.5" y="1683.5" width="40" height="30" as="geometry" />
        </mxCell>
        <mxCell id="0wjpcV22vmfzBX8xie9R-67" style="edgeStyle=orthogonalEdgeStyle;rounded=0;orthogonalLoop=1;jettySize=auto;html=1;exitX=1;exitY=0.5;exitDx=0;exitDy=0;entryX=0;entryY=0.5;entryDx=0;entryDy=0;" edge="1" source="0wjpcV22vmfzBX8xie9R-68" target="0wjpcV22vmfzBX8xie9R-72" parent="1">
          <mxGeometry relative="1" as="geometry" />
        </mxCell>
        <mxCell id="0wjpcV22vmfzBX8xie9R-68" value="&lt;b&gt;&lt;font style=&quot;font-size: 14px&quot;&gt;:&lt;/font&gt;&lt;/b&gt;" style="rounded=1;whiteSpace=wrap;html=1;strokeWidth=1;imageWidth=24;arcSize=50;" vertex="1" parent="1">
          <mxGeometry x="214.5" y="1683.5" width="40" height="30" as="geometry" />
        </mxCell>
        <mxCell id="0wjpcV22vmfzBX8xie9R-69" value="&lt;b&gt;&lt;font style=&quot;font-size: 14px&quot;&gt;,&lt;/font&gt;&lt;/b&gt;" style="rounded=1;whiteSpace=wrap;html=1;strokeWidth=1;imageWidth=24;arcSize=50;" vertex="1" parent="1">
          <mxGeometry x="399.5" y="1683.5" width="40" height="30" as="geometry" />
        </mxCell>
        <mxCell id="0wjpcV22vmfzBX8xie9R-71" style="edgeStyle=orthogonalEdgeStyle;rounded=0;orthogonalLoop=1;jettySize=auto;html=1;exitX=1;exitY=0.5;exitDx=0;exitDy=0;entryX=0;entryY=0.5;entryDx=0;entryDy=0;" edge="1" source="0wjpcV22vmfzBX8xie9R-72" target="0wjpcV22vmfzBX8xie9R-69" parent="1">
          <mxGeometry relative="1" as="geometry">
            <mxPoint x="393.5" y="1698.5142857142855" as="targetPoint" />
          </mxGeometry>
        </mxCell>
        <mxCell id="0wjpcV22vmfzBX8xie9R-72" value="TIPO" style="rounded=0;whiteSpace=wrap;html=1;strokeWidth=1;" vertex="1" parent="1">
          <mxGeometry x="288.5" y="1684.75" width="70" height="27.5" as="geometry" />
        </mxCell>
        <mxCell id="0wjpcV22vmfzBX8xie9R-73" value="" style="endArrow=classic;html=1;exitX=1;exitY=0.5;exitDx=0;exitDy=0;" edge="1" source="0wjpcV22vmfzBX8xie9R-69" parent="1">
          <mxGeometry width="50" height="50" relative="1" as="geometry">
            <mxPoint x="514.5" y="1726" as="sourcePoint" />
            <mxPoint x="489.5" y="1699" as="targetPoint" />
          </mxGeometry>
        </mxCell>
        <mxCell id="0wjpcV22vmfzBX8xie9R-74" value="" style="endArrow=classic;html=1;" edge="1" parent="1">
          <mxGeometry width="50" height="50" relative="1" as="geometry">
            <mxPoint x="454.5" y="1699" as="sourcePoint" />
            <mxPoint x="109.5" y="1699" as="targetPoint" />
            <Array as="points">
              <mxPoint x="454.5" y="1732" />
              <mxPoint x="109.5" y="1732" />
            </Array>
          </mxGeometry>
        </mxCell>
        <mxCell id="0wjpcV22vmfzBX8xie9R-79" style="edgeStyle=orthogonalEdgeStyle;rounded=0;orthogonalLoop=1;jettySize=auto;html=1;exitX=0.5;exitY=1;exitDx=0;exitDy=0;entryX=0;entryY=0.5;entryDx=0;entryDy=0;" edge="1" parent="1" source="0wjpcV22vmfzBX8xie9R-76" target="0wjpcV22vmfzBX8xie9R-77">
          <mxGeometry relative="1" as="geometry" />
        </mxCell>
        <mxCell id="0wjpcV22vmfzBX8xie9R-81" style="edgeStyle=orthogonalEdgeStyle;rounded=0;orthogonalLoop=1;jettySize=auto;html=1;exitX=1;exitY=0.5;exitDx=0;exitDy=0;entryX=0;entryY=0.5;entryDx=0;entryDy=0;" edge="1" parent="1" source="0wjpcV22vmfzBX8xie9R-76" target="0wjpcV22vmfzBX8xie9R-82">
          <mxGeometry relative="1" as="geometry">
            <mxPoint x="297.2586206896551" y="2211.5172413793102" as="targetPoint" />
          </mxGeometry>
        </mxCell>
        <mxCell id="0wjpcV22vmfzBX8xie9R-76" value="ESTATUTO" style="rounded=0;whiteSpace=wrap;html=1;strokeWidth=1;" vertex="1" parent="1">
          <mxGeometry x="161" y="2247" width="70" height="27.5" as="geometry" />
        </mxCell>
        <mxCell id="0wjpcV22vmfzBX8xie9R-83" style="edgeStyle=orthogonalEdgeStyle;rounded=0;orthogonalLoop=1;jettySize=auto;html=1;exitX=1;exitY=0.5;exitDx=0;exitDy=0;entryX=0;entryY=0.5;entryDx=0;entryDy=0;" edge="1" parent="1" source="0wjpcV22vmfzBX8xie9R-77" target="0wjpcV22vmfzBX8xie9R-82">
          <mxGeometry relative="1" as="geometry" />
        </mxCell>
        <mxCell id="0wjpcV22vmfzBX8xie9R-77" value="ESTATUTO AUX" style="rounded=0;whiteSpace=wrap;html=1;strokeWidth=1;" vertex="1" parent="1">
          <mxGeometry x="244.5" y="2290" width="100" height="27.5" as="geometry" />
        </mxCell>
        <mxCell id="0wjpcV22vmfzBX8xie9R-82" value="" style="rounded=0;whiteSpace=wrap;html=1;strokeWidth=1;strokeColor=none;" vertex="1" parent="1">
          <mxGeometry x="408.5" y="2247" width="11" height="27.5" as="geometry" />
        </mxCell>
        <mxCell id="0wjpcV22vmfzBX8xie9R-84" value="" style="endArrow=classic;html=1;exitX=1;exitY=0.5;exitDx=0;exitDy=0;" edge="1" parent="1" source="QDssYqvsrF62F8crRkIU-125">
          <mxGeometry width="50" height="50" relative="1" as="geometry">
            <mxPoint x="465.5" y="2840" as="sourcePoint" />
            <mxPoint x="401.5" y="2738" as="targetPoint" />
          </mxGeometry>
        </mxCell>
        <mxCell id="0wjpcV22vmfzBX8xie9R-85" value="+" style="rounded=1;whiteSpace=wrap;html=1;strokeWidth=1;imageWidth=24;arcSize=50;" vertex="1" parent="1">
          <mxGeometry x="150" y="3353" width="40" height="30" as="geometry" />
        </mxCell>
        <mxCell id="0wjpcV22vmfzBX8xie9R-86" value="-" style="rounded=1;whiteSpace=wrap;html=1;strokeWidth=1;imageWidth=24;arcSize=50;" vertex="1" parent="1">
          <mxGeometry x="150" y="3388.5" width="40" height="30" as="geometry" />
        </mxCell>
        <mxCell id="0wjpcV22vmfzBX8xie9R-92" value="" style="endArrow=classic;html=1;exitX=0;exitY=0.5;exitDx=0;exitDy=0;" edge="1" parent="1" source="0wjpcV22vmfzBX8xie9R-86">
          <mxGeometry width="50" height="50" relative="1" as="geometry">
            <mxPoint x="90" y="3411.5" as="sourcePoint" />
            <mxPoint x="118" y="3320.5" as="targetPoint" />
            <Array as="points">
              <mxPoint x="118" y="3403.5" />
            </Array>
          </mxGeometry>
        </mxCell>
        <mxCell id="0wjpcV22vmfzBX8xie9R-94" value="" style="endArrow=classic;html=1;exitX=0;exitY=0.5;exitDx=0;exitDy=0;" edge="1" parent="1">
          <mxGeometry width="50" height="50" relative="1" as="geometry">
            <mxPoint x="150" y="3368" as="sourcePoint" />
            <mxPoint x="118" y="3320.5" as="targetPoint" />
            <Array as="points">
              <mxPoint x="118" y="3368.5" />
            </Array>
          </mxGeometry>
        </mxCell>
        <mxCell id="0wjpcV22vmfzBX8xie9R-95" value="" style="endArrow=classic;html=1;exitX=1;exitY=0.5;exitDx=0;exitDy=0;" edge="1" parent="1" source="QDssYqvsrF62F8crRkIU-47">
          <mxGeometry width="50" height="50" relative="1" as="geometry">
            <mxPoint x="244" y="3349.5" as="sourcePoint" />
            <mxPoint x="256" y="3320.5" as="targetPoint" />
          </mxGeometry>
        </mxCell>
        <mxCell id="0wjpcV22vmfzBX8xie9R-100" value="" style="endArrow=classic;html=1;" edge="1" parent="1">
          <mxGeometry width="50" height="50" relative="1" as="geometry">
            <mxPoint x="225.5" y="3404" as="sourcePoint" />
            <mxPoint x="118" y="3321.0000000000005" as="targetPoint" />
            <Array as="points">
              <mxPoint x="225.5" y="3435" />
              <mxPoint x="118" y="3435" />
            </Array>
          </mxGeometry>
        </mxCell>
        <mxCell id="0wjpcV22vmfzBX8xie9R-101" style="edgeStyle=orthogonalEdgeStyle;rounded=0;orthogonalLoop=1;jettySize=auto;html=1;exitX=0.5;exitY=1;exitDx=0;exitDy=0;entryX=0;entryY=0.5;entryDx=0;entryDy=0;" edge="1" source="0wjpcV22vmfzBX8xie9R-102" target="0wjpcV22vmfzBX8xie9R-105" parent="1">
          <mxGeometry relative="1" as="geometry" />
        </mxCell>
        <mxCell id="0wjpcV22vmfzBX8xie9R-102" value="&amp;lt;TERM&amp;gt;" style="text;html=1;strokeColor=none;fillColor=none;align=center;verticalAlign=middle;whiteSpace=wrap;rounded=0;" vertex="1" parent="1">
          <mxGeometry x="42" y="3534" width="82.5" height="20" as="geometry" />
        </mxCell>
        <mxCell id="0wjpcV22vmfzBX8xie9R-103" style="edgeStyle=orthogonalEdgeStyle;rounded=0;orthogonalLoop=1;jettySize=auto;html=1;exitX=1;exitY=0.5;exitDx=0;exitDy=0;entryX=1;entryY=0.5;entryDx=0;entryDy=0;" edge="1" source="0wjpcV22vmfzBX8xie9R-105" target="0wjpcV22vmfzBX8xie9R-106" parent="1">
          <mxGeometry relative="1" as="geometry" />
        </mxCell>
        <mxCell id="0wjpcV22vmfzBX8xie9R-104" style="edgeStyle=orthogonalEdgeStyle;rounded=0;orthogonalLoop=1;jettySize=auto;html=1;exitX=1;exitY=0.5;exitDx=0;exitDy=0;entryX=1;entryY=0.5;entryDx=0;entryDy=0;" edge="1" source="0wjpcV22vmfzBX8xie9R-105" target="0wjpcV22vmfzBX8xie9R-107" parent="1">
          <mxGeometry relative="1" as="geometry" />
        </mxCell>
        <mxCell id="0wjpcV22vmfzBX8xie9R-105" value="FACTOR" style="rounded=0;whiteSpace=wrap;html=1;strokeWidth=1;" vertex="1" parent="1">
          <mxGeometry x="127.5" y="3564" width="70" height="27.5" as="geometry" />
        </mxCell>
        <mxCell id="0wjpcV22vmfzBX8xie9R-106" value="*" style="rounded=1;whiteSpace=wrap;html=1;strokeWidth=1;imageWidth=24;arcSize=50;" vertex="1" parent="1">
          <mxGeometry x="142.5" y="3610" width="40" height="30" as="geometry" />
        </mxCell>
        <mxCell id="0wjpcV22vmfzBX8xie9R-107" value="/" style="rounded=1;whiteSpace=wrap;html=1;strokeWidth=1;imageWidth=24;arcSize=50;" vertex="1" parent="1">
          <mxGeometry x="142.5" y="3645.5" width="40" height="30" as="geometry" />
        </mxCell>
        <mxCell id="0wjpcV22vmfzBX8xie9R-108" value="" style="endArrow=classic;html=1;exitX=0;exitY=0.5;exitDx=0;exitDy=0;" edge="1" source="0wjpcV22vmfzBX8xie9R-107" parent="1">
          <mxGeometry width="50" height="50" relative="1" as="geometry">
            <mxPoint x="82.5" y="3668.5" as="sourcePoint" />
            <mxPoint x="110.5" y="3577.5" as="targetPoint" />
            <Array as="points">
              <mxPoint x="110.5" y="3660.5" />
            </Array>
          </mxGeometry>
        </mxCell>
        <mxCell id="0wjpcV22vmfzBX8xie9R-109" value="" style="endArrow=classic;html=1;exitX=0;exitY=0.5;exitDx=0;exitDy=0;" edge="1" parent="1">
          <mxGeometry width="50" height="50" relative="1" as="geometry">
            <mxPoint x="142.5" y="3625" as="sourcePoint" />
            <mxPoint x="110.5" y="3577.5" as="targetPoint" />
            <Array as="points">
              <mxPoint x="110.5" y="3625.5" />
            </Array>
          </mxGeometry>
        </mxCell>
        <mxCell id="0wjpcV22vmfzBX8xie9R-110" value="" style="endArrow=classic;html=1;exitX=1;exitY=0.5;exitDx=0;exitDy=0;" edge="1" source="0wjpcV22vmfzBX8xie9R-105" parent="1">
          <mxGeometry width="50" height="50" relative="1" as="geometry">
            <mxPoint x="236.5" y="3606.5" as="sourcePoint" />
            <mxPoint x="248.5" y="3577.5" as="targetPoint" />
          </mxGeometry>
        </mxCell>
        <mxCell id="0wjpcV22vmfzBX8xie9R-111" value="" style="endArrow=classic;html=1;" edge="1" parent="1">
          <mxGeometry width="50" height="50" relative="1" as="geometry">
            <mxPoint x="218" y="3661" as="sourcePoint" />
            <mxPoint x="110.5" y="3578.0000000000005" as="targetPoint" />
            <Array as="points">
              <mxPoint x="218" y="3692" />
              <mxPoint x="110.5" y="3692" />
            </Array>
          </mxGeometry>
        </mxCell>
        <mxCell id="0wjpcV22vmfzBX8xie9R-135" style="edgeStyle=orthogonalEdgeStyle;rounded=0;orthogonalLoop=1;jettySize=auto;html=1;exitX=0.5;exitY=1;exitDx=0;exitDy=0;entryX=0;entryY=0.5;entryDx=0;entryDy=0;" edge="1" parent="1" source="0wjpcV22vmfzBX8xie9R-113" target="0wjpcV22vmfzBX8xie9R-122">
          <mxGeometry relative="1" as="geometry" />
        </mxCell>
        <mxCell id="0wjpcV22vmfzBX8xie9R-136" style="edgeStyle=orthogonalEdgeStyle;rounded=0;orthogonalLoop=1;jettySize=auto;html=1;exitX=0.5;exitY=1;exitDx=0;exitDy=0;entryX=0;entryY=0.5;entryDx=0;entryDy=0;" edge="1" parent="1" source="0wjpcV22vmfzBX8xie9R-113" target="0wjpcV22vmfzBX8xie9R-128">
          <mxGeometry relative="1" as="geometry" />
        </mxCell>
        <mxCell id="0wjpcV22vmfzBX8xie9R-137" style="edgeStyle=orthogonalEdgeStyle;rounded=0;orthogonalLoop=1;jettySize=auto;html=1;exitX=0.5;exitY=1;exitDx=0;exitDy=0;entryX=0;entryY=0.5;entryDx=0;entryDy=0;" edge="1" parent="1" source="0wjpcV22vmfzBX8xie9R-113" target="0wjpcV22vmfzBX8xie9R-124">
          <mxGeometry relative="1" as="geometry" />
        </mxCell>
        <mxCell id="0wjpcV22vmfzBX8xie9R-138" style="edgeStyle=orthogonalEdgeStyle;rounded=0;orthogonalLoop=1;jettySize=auto;html=1;exitX=0.5;exitY=1;exitDx=0;exitDy=0;entryX=0;entryY=0.5;entryDx=0;entryDy=0;" edge="1" parent="1" source="0wjpcV22vmfzBX8xie9R-113" target="0wjpcV22vmfzBX8xie9R-132">
          <mxGeometry relative="1" as="geometry" />
        </mxCell>
        <mxCell id="0wjpcV22vmfzBX8xie9R-139" style="edgeStyle=orthogonalEdgeStyle;rounded=0;orthogonalLoop=1;jettySize=auto;html=1;exitX=0.5;exitY=1;exitDx=0;exitDy=0;entryX=0;entryY=0.5;entryDx=0;entryDy=0;" edge="1" parent="1" source="0wjpcV22vmfzBX8xie9R-113" target="0wjpcV22vmfzBX8xie9R-126">
          <mxGeometry relative="1" as="geometry" />
        </mxCell>
        <mxCell id="0wjpcV22vmfzBX8xie9R-140" style="edgeStyle=orthogonalEdgeStyle;rounded=0;orthogonalLoop=1;jettySize=auto;html=1;exitX=0.5;exitY=1;exitDx=0;exitDy=0;entryX=0;entryY=0.5;entryDx=0;entryDy=0;" edge="1" parent="1" source="0wjpcV22vmfzBX8xie9R-113" target="0wjpcV22vmfzBX8xie9R-130">
          <mxGeometry relative="1" as="geometry" />
        </mxCell>
        <mxCell id="0wjpcV22vmfzBX8xie9R-113" value="&amp;lt;FACTOR&amp;gt;" style="text;html=1;strokeColor=none;fillColor=none;align=center;verticalAlign=middle;whiteSpace=wrap;rounded=0;" vertex="1" parent="1">
          <mxGeometry x="53.5" y="3720" width="80" height="20" as="geometry" />
        </mxCell>
        <mxCell id="0wjpcV22vmfzBX8xie9R-143" style="edgeStyle=orthogonalEdgeStyle;rounded=0;orthogonalLoop=1;jettySize=auto;html=1;exitX=1;exitY=0.5;exitDx=0;exitDy=0;entryX=0;entryY=0.5;entryDx=0;entryDy=0;" edge="1" parent="1" source="0wjpcV22vmfzBX8xie9R-122" target="0wjpcV22vmfzBX8xie9R-141">
          <mxGeometry relative="1" as="geometry" />
        </mxCell>
        <mxCell id="0wjpcV22vmfzBX8xie9R-122" value="(" style="rounded=1;whiteSpace=wrap;html=1;strokeWidth=1;imageWidth=24;arcSize=50;" vertex="1" parent="1">
          <mxGeometry x="159" y="3746" width="49.5" height="30" as="geometry" />
        </mxCell>
        <mxCell id="0wjpcV22vmfzBX8xie9R-148" style="edgeStyle=orthogonalEdgeStyle;rounded=0;orthogonalLoop=1;jettySize=auto;html=1;exitX=1;exitY=0.5;exitDx=0;exitDy=0;entryX=0;entryY=0.5;entryDx=0;entryDy=0;" edge="1" parent="1" source="0wjpcV22vmfzBX8xie9R-124" target="0wjpcV22vmfzBX8xie9R-145">
          <mxGeometry relative="1" as="geometry" />
        </mxCell>
        <mxCell id="0wjpcV22vmfzBX8xie9R-124" value="cte f" style="rounded=1;whiteSpace=wrap;html=1;strokeWidth=1;imageWidth=24;arcSize=50;" vertex="1" parent="1">
          <mxGeometry x="347" y="3819.75" width="50.5" height="30" as="geometry" />
        </mxCell>
        <mxCell id="0wjpcV22vmfzBX8xie9R-150" style="edgeStyle=orthogonalEdgeStyle;rounded=0;orthogonalLoop=1;jettySize=auto;html=1;exitX=1;exitY=0.5;exitDx=0;exitDy=0;entryX=0;entryY=0.5;entryDx=0;entryDy=0;" edge="1" parent="1" source="0wjpcV22vmfzBX8xie9R-126" target="0wjpcV22vmfzBX8xie9R-145">
          <mxGeometry relative="1" as="geometry" />
        </mxCell>
        <mxCell id="0wjpcV22vmfzBX8xie9R-126" value="id" style="rounded=1;whiteSpace=wrap;html=1;strokeWidth=1;imageWidth=24;arcSize=50;" vertex="1" parent="1">
          <mxGeometry x="347" y="3891.25" width="50.5" height="30" as="geometry" />
        </mxCell>
        <mxCell id="0wjpcV22vmfzBX8xie9R-147" style="edgeStyle=orthogonalEdgeStyle;rounded=0;orthogonalLoop=1;jettySize=auto;html=1;exitX=1;exitY=0.5;exitDx=0;exitDy=0;entryX=0;entryY=0.5;entryDx=0;entryDy=0;" edge="1" parent="1" source="0wjpcV22vmfzBX8xie9R-128" target="0wjpcV22vmfzBX8xie9R-145">
          <mxGeometry relative="1" as="geometry" />
        </mxCell>
        <mxCell id="0wjpcV22vmfzBX8xie9R-128" value="cte int" style="rounded=1;whiteSpace=wrap;html=1;strokeWidth=1;imageWidth=24;arcSize=50;" vertex="1" parent="1">
          <mxGeometry x="347" y="3784" width="50.5" height="30" as="geometry" />
        </mxCell>
        <mxCell id="0wjpcV22vmfzBX8xie9R-151" style="edgeStyle=orthogonalEdgeStyle;rounded=0;orthogonalLoop=1;jettySize=auto;html=1;exitX=1;exitY=0.5;exitDx=0;exitDy=0;entryX=0;entryY=0.5;entryDx=0;entryDy=0;" edge="1" parent="1" source="0wjpcV22vmfzBX8xie9R-130" target="0wjpcV22vmfzBX8xie9R-145">
          <mxGeometry relative="1" as="geometry" />
        </mxCell>
        <mxCell id="0wjpcV22vmfzBX8xie9R-130" value="==" style="rounded=1;whiteSpace=wrap;html=1;strokeWidth=1;imageWidth=24;arcSize=50;" vertex="1" parent="1">
          <mxGeometry x="347" y="3926.75" width="50.5" height="30" as="geometry" />
        </mxCell>
        <mxCell id="0wjpcV22vmfzBX8xie9R-149" style="edgeStyle=orthogonalEdgeStyle;rounded=0;orthogonalLoop=1;jettySize=auto;html=1;exitX=1;exitY=0.5;exitDx=0;exitDy=0;entryX=0;entryY=0.5;entryDx=0;entryDy=0;" edge="1" parent="1" source="0wjpcV22vmfzBX8xie9R-132" target="0wjpcV22vmfzBX8xie9R-145">
          <mxGeometry relative="1" as="geometry" />
        </mxCell>
        <mxCell id="0wjpcV22vmfzBX8xie9R-132" value="cte c" style="rounded=1;whiteSpace=wrap;html=1;strokeWidth=1;imageWidth=24;arcSize=50;" vertex="1" parent="1">
          <mxGeometry x="347" y="3855.75" width="50.5" height="30" as="geometry" />
        </mxCell>
        <mxCell id="0wjpcV22vmfzBX8xie9R-144" style="edgeStyle=orthogonalEdgeStyle;rounded=0;orthogonalLoop=1;jettySize=auto;html=1;exitX=1;exitY=0.5;exitDx=0;exitDy=0;entryX=0;entryY=0.5;entryDx=0;entryDy=0;" edge="1" parent="1" source="0wjpcV22vmfzBX8xie9R-141" target="0wjpcV22vmfzBX8xie9R-142">
          <mxGeometry relative="1" as="geometry" />
        </mxCell>
        <mxCell id="0wjpcV22vmfzBX8xie9R-141" value="EXPRESION" style="rounded=0;whiteSpace=wrap;html=1;strokeWidth=1;" vertex="1" parent="1">
          <mxGeometry x="238.5" y="3747.25" width="80" height="27.5" as="geometry" />
        </mxCell>
        <mxCell id="0wjpcV22vmfzBX8xie9R-146" style="edgeStyle=orthogonalEdgeStyle;rounded=0;orthogonalLoop=1;jettySize=auto;html=1;exitX=1;exitY=0.5;exitDx=0;exitDy=0;entryX=0;entryY=0.5;entryDx=0;entryDy=0;" edge="1" parent="1" source="0wjpcV22vmfzBX8xie9R-142" target="0wjpcV22vmfzBX8xie9R-145">
          <mxGeometry relative="1" as="geometry" />
        </mxCell>
        <mxCell id="0wjpcV22vmfzBX8xie9R-142" value=")" style="rounded=1;whiteSpace=wrap;html=1;strokeWidth=1;imageWidth=24;arcSize=50;" vertex="1" parent="1">
          <mxGeometry x="348" y="3746" width="49.5" height="30" as="geometry" />
        </mxCell>
        <mxCell id="0wjpcV22vmfzBX8xie9R-145" value="" style="rounded=1;whiteSpace=wrap;html=1;strokeWidth=1;imageWidth=24;arcSize=50;strokeColor=none;" vertex="1" parent="1">
          <mxGeometry x="470.5" y="3746" width="9" height="30" as="geometry" />
        </mxCell>
        <mxCell id="0wjpcV22vmfzBX8xie9R-161" style="edgeStyle=orthogonalEdgeStyle;rounded=0;orthogonalLoop=1;jettySize=auto;html=1;exitX=1;exitY=0.5;exitDx=0;exitDy=0;entryX=0;entryY=0.5;entryDx=0;entryDy=0;" edge="1" parent="1" source="0wjpcV22vmfzBX8xie9R-152" target="0wjpcV22vmfzBX8xie9R-154">
          <mxGeometry relative="1" as="geometry" />
        </mxCell>
        <mxCell id="0wjpcV22vmfzBX8xie9R-162" style="edgeStyle=orthogonalEdgeStyle;rounded=0;orthogonalLoop=1;jettySize=auto;html=1;exitX=1;exitY=0.5;exitDx=0;exitDy=0;entryX=0;entryY=0.5;entryDx=0;entryDy=0;" edge="1" parent="1" source="0wjpcV22vmfzBX8xie9R-152" target="0wjpcV22vmfzBX8xie9R-153">
          <mxGeometry relative="1" as="geometry" />
        </mxCell>
        <mxCell id="0wjpcV22vmfzBX8xie9R-152" value="module" style="rounded=1;whiteSpace=wrap;html=1;strokeWidth=1;imageWidth=24;arcSize=50;" vertex="1" parent="1">
          <mxGeometry x="129" y="4022.5" width="70" height="30" as="geometry" />
        </mxCell>
        <mxCell id="0wjpcV22vmfzBX8xie9R-164" style="edgeStyle=orthogonalEdgeStyle;rounded=0;orthogonalLoop=1;jettySize=auto;html=1;exitX=1;exitY=0.5;exitDx=0;exitDy=0;entryX=0;entryY=0.5;entryDx=0;entryDy=0;" edge="1" parent="1" source="0wjpcV22vmfzBX8xie9R-153" target="0wjpcV22vmfzBX8xie9R-155">
          <mxGeometry relative="1" as="geometry" />
        </mxCell>
        <mxCell id="0wjpcV22vmfzBX8xie9R-153" value="void" style="rounded=1;whiteSpace=wrap;html=1;strokeWidth=1;imageWidth=24;arcSize=50;" vertex="1" parent="1">
          <mxGeometry x="241" y="4049.88" width="70" height="30" as="geometry" />
        </mxCell>
        <mxCell id="0wjpcV22vmfzBX8xie9R-163" style="edgeStyle=orthogonalEdgeStyle;rounded=0;orthogonalLoop=1;jettySize=auto;html=1;exitX=1;exitY=0.5;exitDx=0;exitDy=0;entryX=0;entryY=0.5;entryDx=0;entryDy=0;" edge="1" parent="1" source="0wjpcV22vmfzBX8xie9R-154" target="0wjpcV22vmfzBX8xie9R-155">
          <mxGeometry relative="1" as="geometry" />
        </mxCell>
        <mxCell id="0wjpcV22vmfzBX8xie9R-154" value="TIPO" style="rounded=0;whiteSpace=wrap;html=1;strokeWidth=1;" vertex="1" parent="1">
          <mxGeometry x="241" y="3997.63" width="70" height="27.5" as="geometry" />
        </mxCell>
        <mxCell id="0wjpcV22vmfzBX8xie9R-165" style="edgeStyle=orthogonalEdgeStyle;rounded=0;orthogonalLoop=1;jettySize=auto;html=1;exitX=1;exitY=0.5;exitDx=0;exitDy=0;entryX=0;entryY=0.5;entryDx=0;entryDy=0;" edge="1" parent="1" source="0wjpcV22vmfzBX8xie9R-155" target="0wjpcV22vmfzBX8xie9R-156">
          <mxGeometry relative="1" as="geometry" />
        </mxCell>
        <mxCell id="0wjpcV22vmfzBX8xie9R-155" value="id" style="rounded=1;whiteSpace=wrap;html=1;strokeWidth=1;imageWidth=24;arcSize=50;" vertex="1" parent="1">
          <mxGeometry x="372" y="4022.5" width="36" height="30" as="geometry" />
        </mxCell>
        <mxCell id="0wjpcV22vmfzBX8xie9R-166" style="edgeStyle=orthogonalEdgeStyle;rounded=0;orthogonalLoop=1;jettySize=auto;html=1;exitX=1;exitY=0.5;exitDx=0;exitDy=0;" edge="1" parent="1" source="0wjpcV22vmfzBX8xie9R-156" target="0wjpcV22vmfzBX8xie9R-157">
          <mxGeometry relative="1" as="geometry" />
        </mxCell>
        <mxCell id="0wjpcV22vmfzBX8xie9R-156" value="PARAMS" style="rounded=0;whiteSpace=wrap;html=1;strokeWidth=1;" vertex="1" parent="1">
          <mxGeometry x="444" y="4023.75" width="70" height="27.5" as="geometry" />
        </mxCell>
        <mxCell id="0wjpcV22vmfzBX8xie9R-167" style="edgeStyle=orthogonalEdgeStyle;rounded=0;orthogonalLoop=1;jettySize=auto;html=1;exitX=1;exitY=0.5;exitDx=0;exitDy=0;" edge="1" parent="1" source="0wjpcV22vmfzBX8xie9R-157">
          <mxGeometry relative="1" as="geometry">
            <mxPoint x="711" y="4037.5" as="targetPoint" />
          </mxGeometry>
        </mxCell>
        <mxCell id="0wjpcV22vmfzBX8xie9R-157" value="BLOQUE MODULE" style="rounded=0;whiteSpace=wrap;html=1;strokeWidth=1;" vertex="1" parent="1">
          <mxGeometry x="555" y="4023.75" width="110" height="27.5" as="geometry" />
        </mxCell>
        <mxCell id="0wjpcV22vmfzBX8xie9R-168" value="" style="endArrow=classic;html=1;" edge="1" parent="1">
          <mxGeometry width="50" height="50" relative="1" as="geometry">
            <mxPoint x="679" y="4036.25" as="sourcePoint" />
            <mxPoint x="108" y="4036.25" as="targetPoint" />
            <Array as="points">
              <mxPoint x="679" y="4086.25" />
              <mxPoint x="108" y="4086.25" />
            </Array>
          </mxGeometry>
        </mxCell>
        <mxCell id="0wjpcV22vmfzBX8xie9R-173" style="edgeStyle=orthogonalEdgeStyle;rounded=0;orthogonalLoop=1;jettySize=auto;html=1;exitX=1;exitY=0.5;exitDx=0;exitDy=0;entryX=0;entryY=0.5;entryDx=0;entryDy=0;" edge="1" parent="1" source="0wjpcV22vmfzBX8xie9R-169" target="0wjpcV22vmfzBX8xie9R-170">
          <mxGeometry relative="1" as="geometry" />
        </mxCell>
        <mxCell id="0wjpcV22vmfzBX8xie9R-169" value="(" style="rounded=1;whiteSpace=wrap;html=1;strokeWidth=1;imageWidth=24;arcSize=50;" vertex="1" parent="1">
          <mxGeometry x="137.25" y="4175" width="49.5" height="30" as="geometry" />
        </mxCell>
        <mxCell id="0wjpcV22vmfzBX8xie9R-174" style="edgeStyle=orthogonalEdgeStyle;rounded=0;orthogonalLoop=1;jettySize=auto;html=1;exitX=1;exitY=0.5;exitDx=0;exitDy=0;entryX=0;entryY=0.5;entryDx=0;entryDy=0;" edge="1" parent="1" source="0wjpcV22vmfzBX8xie9R-170" target="0wjpcV22vmfzBX8xie9R-171">
          <mxGeometry relative="1" as="geometry" />
        </mxCell>
        <mxCell id="0wjpcV22vmfzBX8xie9R-170" value="VARS FUNC" style="rounded=0;whiteSpace=wrap;html=1;strokeWidth=1;" vertex="1" parent="1">
          <mxGeometry x="216.75" y="4176.25" width="80" height="27.5" as="geometry" />
        </mxCell>
        <mxCell id="0wjpcV22vmfzBX8xie9R-175" style="edgeStyle=orthogonalEdgeStyle;rounded=0;orthogonalLoop=1;jettySize=auto;html=1;exitX=1;exitY=0.5;exitDx=0;exitDy=0;" edge="1" parent="1" source="0wjpcV22vmfzBX8xie9R-171">
          <mxGeometry relative="1" as="geometry">
            <mxPoint x="419.66666666666674" y="4189.833333333334" as="targetPoint" />
          </mxGeometry>
        </mxCell>
        <mxCell id="0wjpcV22vmfzBX8xie9R-171" value=")" style="rounded=1;whiteSpace=wrap;html=1;strokeWidth=1;imageWidth=24;arcSize=50;" vertex="1" parent="1">
          <mxGeometry x="326.25" y="4175" width="49.5" height="30" as="geometry" />
        </mxCell>
        <mxCell id="0wjpcV22vmfzBX8xie9R-176" value="" style="endArrow=classic;html=1;" edge="1" parent="1">
          <mxGeometry width="50" height="50" relative="1" as="geometry">
            <mxPoint x="194.5" y="4191" as="sourcePoint" />
            <mxPoint x="313.5" y="4191" as="targetPoint" />
            <Array as="points">
              <mxPoint x="194.5" y="4219" />
              <mxPoint x="313.5" y="4219" />
            </Array>
          </mxGeometry>
        </mxCell>
        <mxCell id="0wjpcV22vmfzBX8xie9R-187" style="edgeStyle=orthogonalEdgeStyle;rounded=0;orthogonalLoop=1;jettySize=auto;html=1;exitX=0.5;exitY=1;exitDx=0;exitDy=0;entryX=0;entryY=0.5;entryDx=0;entryDy=0;" edge="1" source="0wjpcV22vmfzBX8xie9R-188" target="0wjpcV22vmfzBX8xie9R-190" parent="1">
          <mxGeometry relative="1" as="geometry" />
        </mxCell>
        <mxCell id="0wjpcV22vmfzBX8xie9R-188" value="&amp;lt;CALL MODULE&amp;gt;" style="text;html=1;strokeColor=none;fillColor=none;align=center;verticalAlign=middle;whiteSpace=wrap;rounded=0;" vertex="1" parent="1">
          <mxGeometry x="66.5" y="4265" width="105" height="20" as="geometry" />
        </mxCell>
        <mxCell id="0wjpcV22vmfzBX8xie9R-189" style="edgeStyle=orthogonalEdgeStyle;rounded=0;orthogonalLoop=1;jettySize=auto;html=1;exitX=1;exitY=0.5;exitDx=0;exitDy=0;" edge="1" source="0wjpcV22vmfzBX8xie9R-190" target="0wjpcV22vmfzBX8xie9R-192" parent="1">
          <mxGeometry relative="1" as="geometry" />
        </mxCell>
        <mxCell id="0wjpcV22vmfzBX8xie9R-190" value="id" style="rounded=1;whiteSpace=wrap;html=1;strokeWidth=1;imageWidth=24;arcSize=50;" vertex="1" parent="1">
          <mxGeometry x="146.5" y="4300.5" width="40" height="30" as="geometry" />
        </mxCell>
        <mxCell id="0wjpcV22vmfzBX8xie9R-191" style="edgeStyle=orthogonalEdgeStyle;rounded=0;orthogonalLoop=1;jettySize=auto;html=1;exitX=1;exitY=0.5;exitDx=0;exitDy=0;entryX=0;entryY=0.5;entryDx=0;entryDy=0;" edge="1" source="0wjpcV22vmfzBX8xie9R-192" target="0wjpcV22vmfzBX8xie9R-194" parent="1">
          <mxGeometry relative="1" as="geometry" />
        </mxCell>
        <mxCell id="0wjpcV22vmfzBX8xie9R-192" value="&lt;b&gt;&lt;font style=&quot;font-size: 14px&quot;&gt;(&lt;/font&gt;&lt;/b&gt;" style="rounded=1;whiteSpace=wrap;html=1;strokeWidth=1;imageWidth=24;arcSize=50;" vertex="1" parent="1">
          <mxGeometry x="223.5" y="4300.5" width="40" height="30" as="geometry" />
        </mxCell>
        <mxCell id="0wjpcV22vmfzBX8xie9R-193" style="edgeStyle=orthogonalEdgeStyle;rounded=0;orthogonalLoop=1;jettySize=auto;html=1;exitX=1;exitY=0.5;exitDx=0;exitDy=0;" edge="1" source="0wjpcV22vmfzBX8xie9R-194" target="0wjpcV22vmfzBX8xie9R-196" parent="1">
          <mxGeometry relative="1" as="geometry" />
        </mxCell>
        <mxCell id="0wjpcV22vmfzBX8xie9R-194" value="EXPRESION" style="rounded=0;whiteSpace=wrap;html=1;strokeWidth=1;" vertex="1" parent="1">
          <mxGeometry x="292.5" y="4301.75" width="79" height="27.5" as="geometry" />
        </mxCell>
        <mxCell id="0wjpcV22vmfzBX8xie9R-195" style="edgeStyle=orthogonalEdgeStyle;rounded=0;orthogonalLoop=1;jettySize=auto;html=1;exitX=1;exitY=0.5;exitDx=0;exitDy=0;" edge="1" source="0wjpcV22vmfzBX8xie9R-196" parent="1">
          <mxGeometry relative="1" as="geometry">
            <mxPoint x="491.66666666666674" y="4315.833333333334" as="targetPoint" />
          </mxGeometry>
        </mxCell>
        <mxCell id="0wjpcV22vmfzBX8xie9R-196" value="&lt;b&gt;&lt;font style=&quot;font-size: 14px&quot;&gt;)&lt;/font&gt;&lt;/b&gt;" style="rounded=1;whiteSpace=wrap;html=1;strokeWidth=1;imageWidth=24;arcSize=50;" vertex="1" parent="1">
          <mxGeometry x="408.5" y="4300.5" width="40" height="30" as="geometry" />
        </mxCell>
        <mxCell id="0wjpcV22vmfzBX8xie9R-197" value="" style="endArrow=classic;html=1;" edge="1" parent="1">
          <mxGeometry width="50" height="50" relative="1" as="geometry">
            <mxPoint x="276.5" y="4317" as="sourcePoint" />
            <mxPoint x="384.5" y="4317" as="targetPoint" />
            <Array as="points">
              <mxPoint x="276.5" y="4345" />
              <mxPoint x="384.5" y="4345" />
            </Array>
          </mxGeometry>
        </mxCell>
        <mxCell id="0wjpcV22vmfzBX8xie9R-200" style="edgeStyle=orthogonalEdgeStyle;rounded=0;orthogonalLoop=1;jettySize=auto;html=1;exitX=1;exitY=0.5;exitDx=0;exitDy=0;" edge="1" parent="1" source="0wjpcV22vmfzBX8xie9R-198" target="0wjpcV22vmfzBX8xie9R-199">
          <mxGeometry relative="1" as="geometry" />
        </mxCell>
        <mxCell id="0wjpcV22vmfzBX8xie9R-198" value="return" style="rounded=1;whiteSpace=wrap;html=1;strokeWidth=1;imageWidth=24;arcSize=50;" vertex="1" parent="1">
          <mxGeometry x="124.5" y="4406.5" width="70" height="30" as="geometry" />
        </mxCell>
        <mxCell id="0wjpcV22vmfzBX8xie9R-201" style="edgeStyle=orthogonalEdgeStyle;rounded=0;orthogonalLoop=1;jettySize=auto;html=1;exitX=1;exitY=0.5;exitDx=0;exitDy=0;" edge="1" parent="1" source="0wjpcV22vmfzBX8xie9R-199">
          <mxGeometry relative="1" as="geometry">
            <mxPoint x="363.16666666666674" y="4421.833333333334" as="targetPoint" />
          </mxGeometry>
        </mxCell>
        <mxCell id="0wjpcV22vmfzBX8xie9R-199" value="EXPRESION" style="rounded=0;whiteSpace=wrap;html=1;strokeWidth=1;" vertex="1" parent="1">
          <mxGeometry x="237" y="4407.75" width="80" height="27.5" as="geometry" />
        </mxCell>
        <mxCell id="0wjpcV22vmfzBX8xie9R-206" style="edgeStyle=orthogonalEdgeStyle;rounded=0;orthogonalLoop=1;jettySize=auto;html=1;exitX=1;exitY=0.5;exitDx=0;exitDy=0;entryX=0;entryY=0.5;entryDx=0;entryDy=0;" edge="1" parent="1" source="0wjpcV22vmfzBX8xie9R-203" target="0wjpcV22vmfzBX8xie9R-205">
          <mxGeometry relative="1" as="geometry" />
        </mxCell>
        <mxCell id="0wjpcV22vmfzBX8xie9R-203" value="for" style="rounded=1;whiteSpace=wrap;html=1;strokeWidth=1;imageWidth=24;arcSize=50;" vertex="1" parent="1">
          <mxGeometry x="118.5" y="4552" width="70" height="30" as="geometry" />
        </mxCell>
        <mxCell id="0wjpcV22vmfzBX8xie9R-209" style="edgeStyle=orthogonalEdgeStyle;rounded=0;orthogonalLoop=1;jettySize=auto;html=1;exitX=1;exitY=0.5;exitDx=0;exitDy=0;" edge="1" parent="1" source="0wjpcV22vmfzBX8xie9R-205" target="0wjpcV22vmfzBX8xie9R-207">
          <mxGeometry relative="1" as="geometry" />
        </mxCell>
        <mxCell id="0wjpcV22vmfzBX8xie9R-205" value="ASIGNACION" style="rounded=0;whiteSpace=wrap;html=1;strokeWidth=1;" vertex="1" parent="1">
          <mxGeometry x="221" y="4553.25" width="90" height="27.5" as="geometry" />
        </mxCell>
        <mxCell id="0wjpcV22vmfzBX8xie9R-211" style="edgeStyle=orthogonalEdgeStyle;rounded=0;orthogonalLoop=1;jettySize=auto;html=1;exitX=1;exitY=0.5;exitDx=0;exitDy=0;entryX=0;entryY=0.5;entryDx=0;entryDy=0;" edge="1" parent="1" source="0wjpcV22vmfzBX8xie9R-207" target="0wjpcV22vmfzBX8xie9R-210">
          <mxGeometry relative="1" as="geometry" />
        </mxCell>
        <mxCell id="0wjpcV22vmfzBX8xie9R-207" value="to" style="rounded=1;whiteSpace=wrap;html=1;strokeWidth=1;imageWidth=24;arcSize=50;" vertex="1" parent="1">
          <mxGeometry x="336.5" y="4552" width="36" height="30" as="geometry" />
        </mxCell>
        <mxCell id="0wjpcV22vmfzBX8xie9R-208" style="edgeStyle=orthogonalEdgeStyle;rounded=0;orthogonalLoop=1;jettySize=auto;html=1;exitX=0.5;exitY=1;exitDx=0;exitDy=0;" edge="1" parent="1" source="0wjpcV22vmfzBX8xie9R-207" target="0wjpcV22vmfzBX8xie9R-207">
          <mxGeometry relative="1" as="geometry" />
        </mxCell>
        <mxCell id="0wjpcV22vmfzBX8xie9R-215" style="edgeStyle=orthogonalEdgeStyle;rounded=0;orthogonalLoop=1;jettySize=auto;html=1;exitX=1;exitY=0.5;exitDx=0;exitDy=0;entryX=0;entryY=0.5;entryDx=0;entryDy=0;" edge="1" parent="1" source="0wjpcV22vmfzBX8xie9R-210" target="0wjpcV22vmfzBX8xie9R-212">
          <mxGeometry relative="1" as="geometry" />
        </mxCell>
        <mxCell id="0wjpcV22vmfzBX8xie9R-210" value="cte int" style="rounded=1;whiteSpace=wrap;html=1;strokeWidth=1;imageWidth=24;arcSize=50;" vertex="1" parent="1">
          <mxGeometry x="398.5" y="4552" width="50.5" height="30" as="geometry" />
        </mxCell>
        <mxCell id="0wjpcV22vmfzBX8xie9R-216" style="edgeStyle=orthogonalEdgeStyle;rounded=0;orthogonalLoop=1;jettySize=auto;html=1;exitX=1;exitY=0.5;exitDx=0;exitDy=0;entryX=0;entryY=0.5;entryDx=0;entryDy=0;" edge="1" parent="1" source="0wjpcV22vmfzBX8xie9R-212" target="0wjpcV22vmfzBX8xie9R-214">
          <mxGeometry relative="1" as="geometry" />
        </mxCell>
        <mxCell id="0wjpcV22vmfzBX8xie9R-212" value="{" style="rounded=1;whiteSpace=wrap;html=1;strokeWidth=1;imageWidth=24;arcSize=50;" vertex="1" parent="1">
          <mxGeometry x="484.5" y="4552" width="40" height="30" as="geometry" />
        </mxCell>
        <mxCell id="0wjpcV22vmfzBX8xie9R-218" style="edgeStyle=orthogonalEdgeStyle;rounded=0;orthogonalLoop=1;jettySize=auto;html=1;exitX=1;exitY=0.5;exitDx=0;exitDy=0;" edge="1" parent="1" source="0wjpcV22vmfzBX8xie9R-213">
          <mxGeometry relative="1" as="geometry">
            <mxPoint x="731.666666666667" y="4567.333333333334" as="targetPoint" />
          </mxGeometry>
        </mxCell>
        <mxCell id="0wjpcV22vmfzBX8xie9R-213" value="}" style="rounded=1;whiteSpace=wrap;html=1;strokeWidth=1;imageWidth=24;arcSize=50;" vertex="1" parent="1">
          <mxGeometry x="654.5" y="4552" width="40" height="30" as="geometry" />
        </mxCell>
        <mxCell id="0wjpcV22vmfzBX8xie9R-217" style="edgeStyle=orthogonalEdgeStyle;rounded=0;orthogonalLoop=1;jettySize=auto;html=1;exitX=1;exitY=0.5;exitDx=0;exitDy=0;entryX=0;entryY=0.5;entryDx=0;entryDy=0;" edge="1" parent="1" source="0wjpcV22vmfzBX8xie9R-214" target="0wjpcV22vmfzBX8xie9R-213">
          <mxGeometry relative="1" as="geometry" />
        </mxCell>
        <mxCell id="0wjpcV22vmfzBX8xie9R-214" value="ESTATUTO" style="rounded=0;whiteSpace=wrap;html=1;strokeWidth=1;" vertex="1" parent="1">
          <mxGeometry x="554.5" y="4553.25" width="70" height="27.5" as="geometry" />
        </mxCell>
        <mxCell id="0wjpcV22vmfzBX8xie9R-235" style="edgeStyle=orthogonalEdgeStyle;rounded=0;orthogonalLoop=1;jettySize=auto;html=1;exitX=0.5;exitY=1;exitDx=0;exitDy=0;entryX=0;entryY=0.5;entryDx=0;entryDy=0;" edge="1" source="0wjpcV22vmfzBX8xie9R-236" target="0wjpcV22vmfzBX8xie9R-238" parent="1">
          <mxGeometry relative="1" as="geometry" />
        </mxCell>
        <mxCell id="0wjpcV22vmfzBX8xie9R-236" value="&amp;lt;WHILE&amp;gt;" style="text;html=1;strokeColor=none;fillColor=none;align=center;verticalAlign=middle;whiteSpace=wrap;rounded=0;" vertex="1" parent="1">
          <mxGeometry x="42" y="4715" width="80" height="20" as="geometry" />
        </mxCell>
        <mxCell id="0wjpcV22vmfzBX8xie9R-237" style="edgeStyle=orthogonalEdgeStyle;rounded=0;orthogonalLoop=1;jettySize=auto;html=1;exitX=1;exitY=0.5;exitDx=0;exitDy=0;entryX=0;entryY=0.5;entryDx=0;entryDy=0;" edge="1" source="0wjpcV22vmfzBX8xie9R-238" target="0wjpcV22vmfzBX8xie9R-252" parent="1">
          <mxGeometry relative="1" as="geometry">
            <mxPoint x="211" y="4769" as="targetPoint" />
          </mxGeometry>
        </mxCell>
        <mxCell id="0wjpcV22vmfzBX8xie9R-238" value="while" style="rounded=1;whiteSpace=wrap;html=1;strokeWidth=1;imageWidth=24;arcSize=50;" vertex="1" parent="1">
          <mxGeometry x="108.5" y="4754" width="70" height="30" as="geometry" />
        </mxCell>
        <mxCell id="0wjpcV22vmfzBX8xie9R-243" style="edgeStyle=orthogonalEdgeStyle;rounded=0;orthogonalLoop=1;jettySize=auto;html=1;exitX=0.5;exitY=1;exitDx=0;exitDy=0;" edge="1" parent="1">
          <mxGeometry relative="1" as="geometry">
            <mxPoint x="344.4999999999998" y="4784" as="sourcePoint" />
            <mxPoint x="344.4999999999998" y="4784" as="targetPoint" />
          </mxGeometry>
        </mxCell>
        <mxCell id="0wjpcV22vmfzBX8xie9R-246" style="edgeStyle=orthogonalEdgeStyle;rounded=0;orthogonalLoop=1;jettySize=auto;html=1;exitX=1;exitY=0.5;exitDx=0;exitDy=0;entryX=0;entryY=0.5;entryDx=0;entryDy=0;" edge="1" source="0wjpcV22vmfzBX8xie9R-247" target="0wjpcV22vmfzBX8xie9R-251" parent="1">
          <mxGeometry relative="1" as="geometry" />
        </mxCell>
        <mxCell id="0wjpcV22vmfzBX8xie9R-247" value="{" style="rounded=1;whiteSpace=wrap;html=1;strokeWidth=1;imageWidth=24;arcSize=50;" vertex="1" parent="1">
          <mxGeometry x="503.5" y="4754" width="40" height="30" as="geometry" />
        </mxCell>
        <mxCell id="0wjpcV22vmfzBX8xie9R-248" style="edgeStyle=orthogonalEdgeStyle;rounded=0;orthogonalLoop=1;jettySize=auto;html=1;exitX=1;exitY=0.5;exitDx=0;exitDy=0;" edge="1" source="0wjpcV22vmfzBX8xie9R-249" parent="1">
          <mxGeometry relative="1" as="geometry">
            <mxPoint x="750.666666666667" y="4769.333333333333" as="targetPoint" />
          </mxGeometry>
        </mxCell>
        <mxCell id="0wjpcV22vmfzBX8xie9R-249" value="}" style="rounded=1;whiteSpace=wrap;html=1;strokeWidth=1;imageWidth=24;arcSize=50;" vertex="1" parent="1">
          <mxGeometry x="673.5" y="4754" width="40" height="30" as="geometry" />
        </mxCell>
        <mxCell id="0wjpcV22vmfzBX8xie9R-250" style="edgeStyle=orthogonalEdgeStyle;rounded=0;orthogonalLoop=1;jettySize=auto;html=1;exitX=1;exitY=0.5;exitDx=0;exitDy=0;entryX=0;entryY=0.5;entryDx=0;entryDy=0;" edge="1" source="0wjpcV22vmfzBX8xie9R-251" target="0wjpcV22vmfzBX8xie9R-249" parent="1">
          <mxGeometry relative="1" as="geometry" />
        </mxCell>
        <mxCell id="0wjpcV22vmfzBX8xie9R-251" value="ESTATUTO" style="rounded=0;whiteSpace=wrap;html=1;strokeWidth=1;" vertex="1" parent="1">
          <mxGeometry x="573.5" y="4755.25" width="70" height="27.5" as="geometry" />
        </mxCell>
        <mxCell id="0wjpcV22vmfzBX8xie9R-255" style="edgeStyle=orthogonalEdgeStyle;rounded=0;orthogonalLoop=1;jettySize=auto;html=1;exitX=1;exitY=0.5;exitDx=0;exitDy=0;entryX=0;entryY=0.5;entryDx=0;entryDy=0;" edge="1" parent="1" source="0wjpcV22vmfzBX8xie9R-252" target="0wjpcV22vmfzBX8xie9R-253">
          <mxGeometry relative="1" as="geometry" />
        </mxCell>
        <mxCell id="0wjpcV22vmfzBX8xie9R-252" value="(" style="rounded=1;whiteSpace=wrap;html=1;strokeWidth=1;imageWidth=24;arcSize=50;" vertex="1" parent="1">
          <mxGeometry x="224.5" y="4754" width="49.5" height="30" as="geometry" />
        </mxCell>
        <mxCell id="0wjpcV22vmfzBX8xie9R-256" style="edgeStyle=orthogonalEdgeStyle;rounded=0;orthogonalLoop=1;jettySize=auto;html=1;exitX=1;exitY=0.5;exitDx=0;exitDy=0;entryX=0;entryY=0.5;entryDx=0;entryDy=0;" edge="1" parent="1" source="0wjpcV22vmfzBX8xie9R-253" target="0wjpcV22vmfzBX8xie9R-254">
          <mxGeometry relative="1" as="geometry" />
        </mxCell>
        <mxCell id="0wjpcV22vmfzBX8xie9R-253" value="EXPRESION" style="rounded=0;whiteSpace=wrap;html=1;strokeWidth=1;" vertex="1" parent="1">
          <mxGeometry x="304" y="4755.25" width="80" height="27.5" as="geometry" />
        </mxCell>
        <mxCell id="0wjpcV22vmfzBX8xie9R-257" style="edgeStyle=orthogonalEdgeStyle;rounded=0;orthogonalLoop=1;jettySize=auto;html=1;exitX=1;exitY=0.5;exitDx=0;exitDy=0;" edge="1" parent="1" source="0wjpcV22vmfzBX8xie9R-254" target="0wjpcV22vmfzBX8xie9R-247">
          <mxGeometry relative="1" as="geometry" />
        </mxCell>
        <mxCell id="0wjpcV22vmfzBX8xie9R-254" value=")" style="rounded=1;whiteSpace=wrap;html=1;strokeWidth=1;imageWidth=24;arcSize=50;" vertex="1" parent="1">
          <mxGeometry x="413.5" y="4754" width="49.5" height="30" as="geometry" />
        </mxCell>
        <mxCell id="0wjpcV22vmfzBX8xie9R-258" style="edgeStyle=orthogonalEdgeStyle;rounded=0;orthogonalLoop=1;jettySize=auto;html=1;exitX=1;exitY=0.5;exitDx=0;exitDy=0;entryX=0;entryY=0.5;entryDx=0;entryDy=0;" edge="1" source="0wjpcV22vmfzBX8xie9R-259" target="0wjpcV22vmfzBX8xie9R-268" parent="1">
          <mxGeometry relative="1" as="geometry">
            <mxPoint x="223.5" y="4919.5" as="targetPoint" />
          </mxGeometry>
        </mxCell>
        <mxCell id="0wjpcV22vmfzBX8xie9R-259" value="if" style="rounded=1;whiteSpace=wrap;html=1;strokeWidth=1;imageWidth=24;arcSize=50;" vertex="1" parent="1">
          <mxGeometry x="121" y="4904.5" width="70" height="30" as="geometry" />
        </mxCell>
        <mxCell id="0wjpcV22vmfzBX8xie9R-260" style="edgeStyle=orthogonalEdgeStyle;rounded=0;orthogonalLoop=1;jettySize=auto;html=1;exitX=0.5;exitY=1;exitDx=0;exitDy=0;" edge="1" parent="1">
          <mxGeometry relative="1" as="geometry">
            <mxPoint x="336.4999999999998" y="4934.5" as="sourcePoint" />
            <mxPoint x="336.4999999999998" y="4934.5" as="targetPoint" />
          </mxGeometry>
        </mxCell>
        <mxCell id="0wjpcV22vmfzBX8xie9R-276" style="edgeStyle=orthogonalEdgeStyle;rounded=0;orthogonalLoop=1;jettySize=auto;html=1;exitX=1;exitY=0.5;exitDx=0;exitDy=0;entryX=0;entryY=0.5;entryDx=0;entryDy=0;" edge="1" parent="1" source="0wjpcV22vmfzBX8xie9R-266" target="0wjpcV22vmfzBX8xie9R-275">
          <mxGeometry relative="1" as="geometry" />
        </mxCell>
        <mxCell id="0wjpcV22vmfzBX8xie9R-266" value="BLOQUE" style="rounded=0;whiteSpace=wrap;html=1;strokeWidth=1;" vertex="1" parent="1">
          <mxGeometry x="492.5" y="4905.75" width="70" height="27.5" as="geometry" />
        </mxCell>
        <mxCell id="0wjpcV22vmfzBX8xie9R-267" style="edgeStyle=orthogonalEdgeStyle;rounded=0;orthogonalLoop=1;jettySize=auto;html=1;exitX=1;exitY=0.5;exitDx=0;exitDy=0;entryX=0;entryY=0.5;entryDx=0;entryDy=0;" edge="1" source="0wjpcV22vmfzBX8xie9R-268" target="0wjpcV22vmfzBX8xie9R-270" parent="1">
          <mxGeometry relative="1" as="geometry" />
        </mxCell>
        <mxCell id="0wjpcV22vmfzBX8xie9R-268" value="(" style="rounded=1;whiteSpace=wrap;html=1;strokeWidth=1;imageWidth=24;arcSize=50;" vertex="1" parent="1">
          <mxGeometry x="216.5" y="4904.5" width="49.5" height="30" as="geometry" />
        </mxCell>
        <mxCell id="0wjpcV22vmfzBX8xie9R-269" style="edgeStyle=orthogonalEdgeStyle;rounded=0;orthogonalLoop=1;jettySize=auto;html=1;exitX=1;exitY=0.5;exitDx=0;exitDy=0;entryX=0;entryY=0.5;entryDx=0;entryDy=0;" edge="1" source="0wjpcV22vmfzBX8xie9R-270" target="0wjpcV22vmfzBX8xie9R-272" parent="1">
          <mxGeometry relative="1" as="geometry" />
        </mxCell>
        <mxCell id="0wjpcV22vmfzBX8xie9R-270" value="EXPRESION" style="rounded=0;whiteSpace=wrap;html=1;strokeWidth=1;" vertex="1" parent="1">
          <mxGeometry x="296" y="4905.75" width="80" height="27.5" as="geometry" />
        </mxCell>
        <mxCell id="0wjpcV22vmfzBX8xie9R-274" style="edgeStyle=orthogonalEdgeStyle;rounded=0;orthogonalLoop=1;jettySize=auto;html=1;exitX=1;exitY=0.5;exitDx=0;exitDy=0;entryX=0;entryY=0.5;entryDx=0;entryDy=0;" edge="1" parent="1" source="0wjpcV22vmfzBX8xie9R-272" target="0wjpcV22vmfzBX8xie9R-266">
          <mxGeometry relative="1" as="geometry" />
        </mxCell>
        <mxCell id="0wjpcV22vmfzBX8xie9R-272" value=")" style="rounded=1;whiteSpace=wrap;html=1;strokeWidth=1;imageWidth=24;arcSize=50;" vertex="1" parent="1">
          <mxGeometry x="405.5" y="4904.5" width="49.5" height="30" as="geometry" />
        </mxCell>
        <mxCell id="0wjpcV22vmfzBX8xie9R-280" style="edgeStyle=orthogonalEdgeStyle;rounded=0;orthogonalLoop=1;jettySize=auto;html=1;exitX=1;exitY=0.5;exitDx=0;exitDy=0;" edge="1" parent="1" source="0wjpcV22vmfzBX8xie9R-275" target="0wjpcV22vmfzBX8xie9R-277">
          <mxGeometry relative="1" as="geometry" />
        </mxCell>
        <mxCell id="0wjpcV22vmfzBX8xie9R-275" value="else" style="rounded=1;whiteSpace=wrap;html=1;strokeWidth=1;imageWidth=24;arcSize=50;" vertex="1" parent="1">
          <mxGeometry x="591" y="4904.5" width="70" height="30" as="geometry" />
        </mxCell>
        <mxCell id="0wjpcV22vmfzBX8xie9R-281" style="edgeStyle=orthogonalEdgeStyle;rounded=0;orthogonalLoop=1;jettySize=auto;html=1;exitX=1;exitY=0.5;exitDx=0;exitDy=0;" edge="1" parent="1" source="0wjpcV22vmfzBX8xie9R-277">
          <mxGeometry relative="1" as="geometry">
            <mxPoint x="797.1206896551726" y="4919.258620689655" as="targetPoint" />
          </mxGeometry>
        </mxCell>
        <mxCell id="0wjpcV22vmfzBX8xie9R-277" value="BLOQUE" style="rounded=0;whiteSpace=wrap;html=1;strokeWidth=1;" vertex="1" parent="1">
          <mxGeometry x="694" y="4905.75" width="70" height="27.5" as="geometry" />
        </mxCell>
        <mxCell id="0wjpcV22vmfzBX8xie9R-286" style="edgeStyle=orthogonalEdgeStyle;rounded=0;orthogonalLoop=1;jettySize=auto;html=1;exitX=1;exitY=0.5;exitDx=0;exitDy=0;" edge="1" parent="1" source="0wjpcV22vmfzBX8xie9R-282" target="0wjpcV22vmfzBX8xie9R-283">
          <mxGeometry relative="1" as="geometry" />
        </mxCell>
        <mxCell id="0wjpcV22vmfzBX8xie9R-282" value="print" style="rounded=1;whiteSpace=wrap;html=1;strokeWidth=1;imageWidth=24;arcSize=50;" vertex="1" parent="1">
          <mxGeometry x="124.44" y="5063.5" width="70" height="30" as="geometry" />
        </mxCell>
        <mxCell id="0wjpcV22vmfzBX8xie9R-288" style="edgeStyle=orthogonalEdgeStyle;rounded=0;orthogonalLoop=1;jettySize=auto;html=1;exitX=1;exitY=0.5;exitDx=0;exitDy=0;entryX=0;entryY=0.5;entryDx=0;entryDy=0;" edge="1" parent="1" source="0wjpcV22vmfzBX8xie9R-283" target="QDssYqvsrF62F8crRkIU-57">
          <mxGeometry relative="1" as="geometry" />
        </mxCell>
        <mxCell id="0wjpcV22vmfzBX8xie9R-283" value="(" style="rounded=1;whiteSpace=wrap;html=1;strokeWidth=1;imageWidth=24;arcSize=50;" vertex="1" parent="1">
          <mxGeometry x="222.75" y="5063.5" width="49.5" height="30" as="geometry" />
        </mxCell>
        <mxCell id="0wjpcV22vmfzBX8xie9R-292" style="edgeStyle=orthogonalEdgeStyle;rounded=0;orthogonalLoop=1;jettySize=auto;html=1;exitX=1;exitY=0.5;exitDx=0;exitDy=0;" edge="1" parent="1" source="0wjpcV22vmfzBX8xie9R-285">
          <mxGeometry relative="1" as="geometry">
            <mxPoint x="547.56" y="5078.5" as="targetPoint" />
          </mxGeometry>
        </mxCell>
        <mxCell id="0wjpcV22vmfzBX8xie9R-285" value=")" style="rounded=1;whiteSpace=wrap;html=1;strokeWidth=1;imageWidth=24;arcSize=50;" vertex="1" parent="1">
          <mxGeometry x="453.9400000000001" y="5063.5" width="49.5" height="30" as="geometry" />
        </mxCell>
        <mxCell id="0wjpcV22vmfzBX8xie9R-298" style="edgeStyle=orthogonalEdgeStyle;rounded=0;orthogonalLoop=1;jettySize=auto;html=1;exitX=1;exitY=0.5;exitDx=0;exitDy=0;entryX=0;entryY=0.5;entryDx=0;entryDy=0;" edge="1" parent="1" source="0wjpcV22vmfzBX8xie9R-293" target="0wjpcV22vmfzBX8xie9R-295">
          <mxGeometry relative="1" as="geometry" />
        </mxCell>
        <mxCell id="0wjpcV22vmfzBX8xie9R-293" value="cte string" style="rounded=1;whiteSpace=wrap;html=1;strokeWidth=1;imageWidth=24;arcSize=50;" vertex="1" parent="1">
          <mxGeometry x="221.5" y="5184.5" width="80" height="30" as="geometry" />
        </mxCell>
        <mxCell id="0wjpcV22vmfzBX8xie9R-299" style="edgeStyle=orthogonalEdgeStyle;rounded=0;orthogonalLoop=1;jettySize=auto;html=1;exitX=1;exitY=0.5;exitDx=0;exitDy=0;entryX=0;entryY=0.5;entryDx=0;entryDy=0;" edge="1" parent="1" source="0wjpcV22vmfzBX8xie9R-294" target="0wjpcV22vmfzBX8xie9R-295">
          <mxGeometry relative="1" as="geometry" />
        </mxCell>
        <mxCell id="0wjpcV22vmfzBX8xie9R-294" value="EXPRESION" style="rounded=0;whiteSpace=wrap;html=1;strokeWidth=1;" vertex="1" parent="1">
          <mxGeometry x="221.5" y="5232.5" width="80" height="27.5" as="geometry" />
        </mxCell>
        <mxCell id="0wjpcV22vmfzBX8xie9R-301" style="edgeStyle=orthogonalEdgeStyle;rounded=0;orthogonalLoop=1;jettySize=auto;html=1;exitX=1;exitY=0.5;exitDx=0;exitDy=0;" edge="1" parent="1" source="0wjpcV22vmfzBX8xie9R-295">
          <mxGeometry relative="1" as="geometry">
            <mxPoint x="492.70000000000005" y="5221.5" as="targetPoint" />
          </mxGeometry>
        </mxCell>
        <mxCell id="0wjpcV22vmfzBX8xie9R-295" value="&lt;b&gt;&lt;font style=&quot;font-size: 14px&quot;&gt;,&lt;/font&gt;&lt;/b&gt;" style="rounded=1;whiteSpace=wrap;html=1;strokeWidth=1;imageWidth=24;arcSize=50;" vertex="1" parent="1">
          <mxGeometry x="391" y="5206.5" width="40" height="30" as="geometry" />
        </mxCell>
        <mxCell id="0wjpcV22vmfzBX8xie9R-302" value="" style="endArrow=classic;html=1;entryX=0.5;entryY=1;entryDx=0;entryDy=0;" edge="1" parent="1" target="QDssYqvsrF62F8crRkIU-27">
          <mxGeometry width="50" height="50" relative="1" as="geometry">
            <mxPoint x="453.5" y="5222.5" as="sourcePoint" />
            <mxPoint x="111.5" y="5285.5" as="targetPoint" />
            <Array as="points">
              <mxPoint x="453.5" y="5271.5" />
              <mxPoint x="112.5" y="5271.5" />
            </Array>
          </mxGeometry>
        </mxCell>
      </root>
    </mxGraphModel>
  </diagram>
</mxfile>
